<?xml version="1.0" encoding="UTF-8"?>
<svg version="1.1" xmlns="http://www.w3.org/2000/svg" width="468" height="533">
<path d="M0 0 C1.18421456 0.00334608 1.18421456 0.00334608 2.39235264 0.00675976 C3.22484062 0.00519977 4.05732859 0.00363978 4.91504347 0.00203252 C7.72647227 -0.00198108 10.53784781 0.00121356 13.34927708 0.00434887 C15.35600653 0.00299498 17.36273573 0.00121512 19.36946446 -0.00096118 C24.83631349 -0.00553725 30.30314375 -0.00374517 35.76999313 -0.0005821 C41.47859633 0.00194096 47.18719787 -0.00039592 52.89580113 -0.00196826 C62.48543929 -0.00379027 72.07506977 -0.00138301 81.66470677 0.00337231 C92.76584573 0.00881344 103.86696632 0.00705348 114.96810484 0.00154591 C124.48230415 -0.0029862 133.99649792 -0.00363524 143.51069796 -0.00101542 C149.20048982 0.00054701 154.89027304 0.00074206 160.58006436 -0.00255191 C165.92908869 -0.00543198 171.27808926 -0.0034524 176.62711102 0.00234234 C178.59520385 0.00366927 180.56329867 0.00327695 182.53139073 0.00107968 C185.20846075 -0.00163447 187.88545361 0.00175262 190.56251866 0.00675976 C191.74338713 0.00341368 191.74338713 0.00341368 192.94811153 0 C198.31262758 0.01959346 198.31262758 0.01959346 200.54092747 1.13374341 C200.54092747 75.38374341 200.54092747 149.63374341 200.54092747 226.13374341 C207.47092747 226.13374341 214.40092747 226.13374341 221.54092747 226.13374341 C223.54092747 228.13374341 223.54092747 228.13374341 223.78384739 230.18086255 C223.7797385 231.00191479 223.77562962 231.82296704 223.77139622 232.66889966 C223.76946263 233.56028637 223.76752903 234.45167309 223.76553684 235.37007153 C223.75329075 236.30270825 223.74104466 237.23534497 223.72842747 238.19624341 C223.72746067 239.60099926 223.72746067 239.60099926 223.72647434 241.03413403 C223.68111971 247.99355117 223.68111971 247.99355117 222.54092747 249.13374341 C215.28092747 249.13374341 208.02092747 249.13374341 200.54092747 249.13374341 C200.54092747 301.93374341 200.54092747 354.73374341 200.54092747 409.13374341 C193.28092747 409.13374341 186.02092747 409.13374341 178.54092747 409.13374341 C178.54092747 356.00374341 178.54092747 302.87374341 178.54092747 248.13374341 C165.34092747 248.13374341 152.14092747 248.13374341 138.54092747 248.13374341 C138.54092747 300.93374341 138.54092747 353.73374341 138.54092747 408.13374341 C131.61092747 408.13374341 124.68092747 408.13374341 117.54092747 408.13374341 C116.54092747 407.13374341 116.54092747 407.13374341 116.41787964 404.52753365 C116.41880143 403.35593477 116.41972323 402.18433589 116.42067295 400.97723401 C116.41939132 400.00202513 116.41939132 400.00202513 116.41808379 399.00711507 C116.41642721 396.81288761 116.42195322 394.61873539 116.42740208 392.42451489 C116.42768394 390.85788486 116.42752624 389.2912547 116.42695957 387.72462475 C116.42667155 383.45827964 116.43256904 379.19196239 116.43953353 374.92562377 C116.44576629 370.47197289 116.44637081 366.01832144 116.44755894 361.56466687 C116.45067249 353.12506897 116.45888619 344.68548396 116.46890843 336.24589175 C116.48006884 326.64024897 116.48557983 317.03460559 116.49060386 307.42895794 C116.50106879 287.66387922 116.51866868 267.89881212 116.54092747 248.13374341 C115.40139622 248.14534497 114.26186497 248.15694653 113.08780247 248.16889966 C101.20531547 248.24998284 89.40179154 247.83364687 77.54092747 247.13374341 C77.53669553 247.95741878 77.53246359 248.78109416 77.52810341 249.62972939 C77.42494299 269.64190586 77.31632747 289.65404618 77.20158821 309.66615975 C77.14623443 319.34373701 77.09274896 329.02131796 77.04361302 338.69892895 C77.00079751 347.13076988 76.95452628 355.56258341 76.90404892 363.99438208 C76.87742669 368.46180126 76.85257317 372.92921492 76.83185345 377.39666569 C76.81231991 381.59661162 76.78818619 385.79650533 76.76043659 389.99640477 C76.7510487 391.54241757 76.74337972 393.08844186 76.73750836 394.63447201 C76.72927655 396.73612926 76.71500851 398.83765874 76.69914585 400.93927014 C76.6926933 402.11824337 76.68624075 403.29721659 76.67959267 404.51191628 C76.54092747 407.13374341 76.54092747 407.13374341 75.54092747 408.13374341 C74.06440083 408.23255137 72.58325511 408.26453586 71.10342747 408.26655591 C69.76151341 408.2684895 69.76151341 408.2684895 68.39248997 408.27046216 C67.45147434 408.26659497 66.51045872 408.26272778 65.54092747 408.25874341 C64.59991184 408.26261059 63.65889622 408.26647778 62.68936497 408.27046216 C61.79475559 408.26917309 60.90014622 408.26788403 59.97842747 408.26655591 C59.15213841 408.26542798 58.32584934 408.26430005 57.47452122 408.26313794 C55.54092747 408.13374341 55.54092747 408.13374341 54.54092747 407.13374341 C54.44409166 405.05813535 54.41905845 402.97917137 54.42067295 400.90130627 C54.41981853 400.24299992 54.4189641 399.58469356 54.41808379 398.90643853 C54.41642717 396.68457234 54.42195329 394.46278045 54.42740208 392.24092114 C54.42768394 390.65458693 54.42752624 389.06825259 54.42695957 387.48191845 C54.42667155 383.16185619 54.43256909 378.84182144 54.43953353 374.52176559 C54.44576622 370.01206026 54.4463708 365.50235436 54.44755894 360.99264538 C54.45067251 352.44679966 54.45888623 343.90096667 54.46890843 335.35512656 C54.48006878 325.62856707 54.48557982 315.90200699 54.49060386 306.1754427 C54.50106883 286.16153582 54.51866876 266.14764041 54.54092747 246.13374341 C53.51806645 246.13596402 52.49520542 246.13818463 51.44134861 246.14047253 C41.81761469 246.16071476 32.19388506 246.17572078 22.5701347 246.18555558 C17.62207615 246.19078164 12.67403474 246.19787431 7.72598606 246.20918286 C2.95385783 246.22002151 -1.81825389 246.22602233 -6.59039348 246.22862065 C-8.41411388 246.23047313 -10.23783335 246.23409037 -12.06154674 246.23947346 C-14.60927728 246.24669684 -17.15693892 246.24773379 -19.704678 246.2472688 C-20.46424801 246.25086407 -21.22381801 246.25445935 -22.00640529 246.25816357 C-27.23096821 246.24779557 -27.23096821 246.24779557 -29.45907253 245.13374341 C-29.48794765 241.48792654 -29.50582838 237.84213877 -29.52157253 234.19624341 C-29.52995144 233.15532544 -29.53833034 232.11440747 -29.54696316 231.04194653 C-29.55179714 229.55791333 -29.55179714 229.55791333 -29.55672878 228.04389966 C-29.5619656 227.12745678 -29.56720241 226.21101391 -29.57259792 225.26680005 C-29.45907253 223.13374341 -29.45907253 223.13374341 -28.45907253 222.13374341 C-26.82434371 222.04673998 -25.18593198 222.02673278 -23.54891628 222.03608716 C-22.55956081 222.03930981 -21.57020534 222.04253247 -20.55086941 222.04585278 C-19.50995144 222.05423169 -18.46903347 222.06261059 -17.39657253 222.07124341 C-15.8293948 222.07801098 -15.8293948 222.07801098 -14.23055691 222.08491528 C-11.64000593 222.09674428 -9.04956694 222.11322651 -6.45907253 222.13374341 C-6.45999432 220.99569036 -6.46091612 219.85763731 -6.46186584 218.68509781 C-6.48403197 191.03709714 -6.50048237 163.38909761 -6.5108847 135.74108994 C-6.51604846 122.37091308 -6.5230624 109.00074259 -6.53451198 95.63056958 C-6.54445641 83.98175134 -6.55092538 72.33293735 -6.55316103 60.68411499 C-6.55446854 54.51199546 -6.55755699 48.33988807 -6.56480259 42.16777241 C-6.57155899 36.36570043 -6.57369027 30.56364564 -6.57218021 24.7615701 C-6.57245671 22.62535076 -6.57446407 20.48913088 -6.57827801 18.35291493 C-6.58320933 15.4499259 -6.5820729 12.54700294 -6.57932705 9.64401257 C-6.58223989 8.78702584 -6.58515273 7.93003911 -6.58815384 7.04708308 C-6.57003679 0.0240845 -6.57003679 0.0240845 0 0 Z M14.54092747 23.13374341 C14.54092747 89.13374341 14.54092747 155.13374341 14.54092747 223.13374341 C27.74092747 223.46374341 40.94092747 223.79374341 54.54092747 224.13374341 C54.87092747 170.01374341 55.20092747 115.89374341 55.54092747 60.13374341 C82.93092747 59.80374341 110.32092747 59.47374341 138.54092747 59.13374341 C138.54092747 110.61374341 138.54092747 162.09374341 138.54092747 215.13374341 C128.14592747 214.63874341 128.14592747 214.63874341 117.54092747 214.13374341 C117.21092747 170.57374341 116.88092747 127.01374341 116.54092747 82.13374341 C103.67092747 82.13374341 90.80092747 82.13374341 77.54092747 82.13374341 C76.83974777 86.3408216 76.41556139 89.71682043 76.41394383 93.88427746 C76.411124 95.00727246 76.40830418 96.13026745 76.40539891 97.2872926 C76.40742314 98.50465603 76.40944737 99.72201947 76.41153294 100.9762727 C76.40978062 102.26955487 76.4080283 103.56283703 76.40622288 104.89530957 C76.40167713 108.43017652 76.40342597 111.96501418 76.40660197 115.49988163 C76.40913873 119.20203983 76.40678451 122.90419557 76.4052158 126.60635388 C76.40339864 132.81934571 76.40578925 139.03232564 76.41055638 145.24531567 C76.41600531 152.42992576 76.41422994 159.6145075 76.40872997 166.79911691 C76.40419451 172.97078604 76.4035502 179.14244664 76.40616864 185.3141169 C76.4077281 188.99904502 76.40793407 192.6839598 76.40463215 196.36888707 C76.4012116 200.47240776 76.40595023 204.57587939 76.41153294 208.6793977 C76.40950871 209.90283383 76.40748448 211.12626996 76.40539891 212.3867799 C76.40821873 213.50131543 76.41103855 214.61585095 76.41394383 215.76416028 C76.41432085 216.73438972 76.41469788 217.70461916 76.41508633 218.7042495 C76.43997325 221.2754324 76.43997325 221.2754324 77.54092747 224.13374341 C111.18924526 225.29403023 144.87261068 225.13374341 178.54092747 225.13374341 C178.54092747 158.80374341 178.54092747 92.47374341 178.54092747 24.13374341 C124.42092747 23.80374341 70.30092747 23.47374341 14.54092747 23.13374341 Z " fill="#11291D" transform="translate(122.45907253026962,28.866256594657898)"/>
<path d="M0 0 C0.77397597 0.00359811 1.54795195 0.00719622 2.34538174 0.01090336 C3.16821368 0.01078282 3.99104563 0.01066229 4.83881187 0.0105381 C7.51477563 0.0112873 10.1906706 0.01891581 12.86662197 0.0267725 C14.51371636 0.0282419 16.16081121 0.02926262 17.80790615 0.02982426 C23.93034977 0.03507738 30.05278341 0.04903846 36.17521572 0.06192875 C49.84959072 0.08255375 63.52396572 0.10317875 77.61271572 0.12442875 C77.61271572 51.60442875 77.61271572 103.08442875 77.61271572 156.12442875 C70.68271572 156.12442875 63.75271572 156.12442875 56.61271572 156.12442875 C55.61271572 155.12442875 55.61271572 155.12442875 55.48966789 152.939888 C55.49058969 151.9673964 55.49151148 150.9949048 55.4924612 149.99294376 C55.49039921 148.32487926 55.49039921 148.32487926 55.48829556 146.62311649 C55.49189083 145.39241428 55.49548611 144.16171207 55.49919033 142.89371586 C55.4990443 141.60609852 55.49889828 140.31848118 55.49874783 138.99184513 C55.49845986 135.45068115 55.50435636 131.90955076 55.51132178 128.36839461 C55.51755556 124.67147887 55.51815914 120.97456244 55.51934719 117.27764225 C55.52246044 110.27238976 55.53067374 103.2671528 55.54069668 96.26190716 C55.55185802 88.28863999 55.55736832 80.3153721 55.56239212 72.34209907 C55.57285636 55.93619843 55.59120175 39.53031919 55.61271572 23.12442875 C42.74271572 23.12442875 29.87271572 23.12442875 16.61271572 23.12442875 C16.61271572 69.98442875 16.61271572 116.84442875 16.61271572 165.12442875 C26.18271572 165.12442875 35.75271572 165.12442875 45.61271572 165.12442875 C45.61271572 165.45442875 45.61271572 165.78442875 45.61271572 166.12442875 C35.71271572 166.12442875 25.81271572 166.12442875 15.61271572 166.12442875 C15.61271572 173.05442875 15.61271572 179.98442875 15.61271572 187.12442875 C21.55271572 187.12442875 27.49271572 187.12442875 33.61271572 187.12442875 C33.61271572 187.45442875 33.61271572 187.78442875 33.61271572 188.12442875 C28.00271572 188.12442875 22.39271572 188.12442875 16.61271572 188.12442875 C16.60240826 190.12670033 16.59210079 192.1289719 16.58148098 194.19191837 C16.48411771 213.01359164 16.38129002 231.83522931 16.27337646 250.65684509 C16.21802268 260.33442236 16.16453721 270.0120033 16.11540127 279.6896143 C16.07258576 288.12145522 16.02631453 296.55326876 15.97583717 304.98506743 C15.94921494 309.4524866 15.92436142 313.91990026 15.9036417 318.38735104 C15.88410816 322.58729697 15.85997444 326.78719067 15.83222485 330.98709011 C15.82283695 332.53310291 15.81516797 334.0791272 15.80929661 335.62515736 C15.8010648 337.72681461 15.78679676 339.82834408 15.7709341 341.92995548 C15.76448155 343.10892871 15.758029 344.28790194 15.75138092 345.50260162 C15.61271572 348.12442875 15.61271572 348.12442875 14.61271572 349.12442875 C13.13618908 349.22323672 11.65504336 349.2552212 10.17521572 349.25724125 C8.83330166 349.25917484 8.83330166 349.25917484 7.46427822 349.2611475 C6.5232626 349.25728031 5.58224697 349.25341312 4.61271572 349.24942875 C3.6717001 349.25329594 2.73068447 349.25716312 1.76115322 349.2611475 C0.86654385 349.25985844 -0.02806553 349.25856937 -0.94978428 349.25724125 C-1.77607334 349.25611332 -2.6023624 349.25498539 -3.45369053 349.25382328 C-5.38728428 349.12442875 -5.38728428 349.12442875 -6.38728428 348.12442875 C-6.48412009 346.04882069 -6.5091533 343.96985671 -6.5075388 341.89199162 C-6.50839322 341.23368526 -6.50924765 340.57537891 -6.51012796 339.89712387 C-6.51178458 337.67525769 -6.50625846 335.4534658 -6.50080967 333.23160648 C-6.50052781 331.64527227 -6.50068551 330.05893793 -6.50125217 328.4726038 C-6.5015402 324.15254153 -6.49564265 319.83250678 -6.48867822 315.51245093 C-6.48244552 311.0027456 -6.48184095 306.4930397 -6.48065281 301.98333073 C-6.47753924 293.43748501 -6.46932552 284.89165201 -6.45930332 276.3458119 C-6.44814297 266.61925241 -6.44263193 256.89269233 -6.43760788 247.16612804 C-6.42714292 227.15222116 -6.40954299 207.13832576 -6.38728428 187.12442875 C-7.4101453 187.12664936 -8.43300632 187.12886997 -9.48686314 187.13115788 C-19.11059706 187.1514001 -28.73432669 187.16640612 -38.35807705 187.17624092 C-43.3061356 187.18146699 -48.254177 187.18855966 -53.20222569 187.1998682 C-57.97435392 187.21070685 -62.74646564 187.21670767 -67.51860523 187.21930599 C-69.34232563 187.22115847 -71.1660451 187.22477571 -72.98975849 187.23015881 C-75.53748903 187.23738218 -78.08515067 187.23841914 -80.63288975 187.23795414 C-81.39245975 187.24154942 -82.15202976 187.24514469 -82.93461704 187.24884892 C-88.15917996 187.23848091 -88.15917996 187.23848091 -90.38728428 186.12442875 C-90.38728428 178.86442875 -90.38728428 171.60442875 -90.38728428 164.12442875 C-90.05728428 164.12442875 -89.72728428 164.12442875 -89.38728428 164.12442875 C-89.38728428 171.05442875 -89.38728428 177.98442875 -89.38728428 185.12442875 C-86.08728428 184.79442875 -82.78728428 184.46442875 -79.38728428 184.12442875 C-77.67736564 184.05701208 -75.96567649 184.01472176 -74.25447178 184.0267725 C-73.42947178 184.02999516 -72.60447178 184.03321781 -71.75447178 184.03653812 C-70.9320499 184.04491703 -70.10962803 184.05329594 -69.26228428 184.06192875 C-67.97064365 184.06869633 -67.97064365 184.06869633 -66.65290928 184.07560062 C-64.56433642 184.08720381 -62.47580021 184.10513035 -60.38728428 184.12442875 C-60.38728428 184.45442875 -60.38728428 184.78442875 -60.38728428 185.12442875 C-42.23728428 185.45442875 -24.08728428 185.78442875 -5.38728428 186.12442875 C-5.38728428 179.52442875 -5.38728428 172.92442875 -5.38728428 166.12442875 C-8.35728428 166.12442875 -11.32728428 166.12442875 -14.38728428 166.12442875 C-14.38728428 165.79442875 -14.38728428 165.46442875 -14.38728428 165.12442875 C-11.74728428 165.12442875 -9.10728428 165.12442875 -6.38728428 165.12442875 C-6.38820607 164.28013844 -6.38912786 163.43584814 -6.39007759 162.56597328 C-6.41213091 142.05312019 -6.4286949 121.54026913 -6.43909645 101.02740669 C-6.44425984 91.107676 -6.45130335 81.1879532 -6.46272373 71.26822758 C-6.47266926 62.62545896 -6.47913739 53.98269607 -6.48137277 45.33992189 C-6.4826801 40.76070412 -6.48576736 36.1815027 -6.49301434 31.60229015 C-6.49977249 27.29731169 -6.50190166 22.99235642 -6.50039196 18.68737316 C-6.50066838 17.10264809 -6.50267472 15.51792229 -6.50648975 13.93320179 C-6.51142381 11.77902464 -6.51028365 9.62493645 -6.5075388 7.47075748 C-6.50846059 6.26228688 -6.50938238 5.05381628 -6.51033211 3.80872536 C-6.29273068 -0.93826438 -4.22659029 0.00833768 0 0 Z " fill="#C9B27C" transform="translate(183.38728427886963,87.87557125091553)"/>
<path d="M0 0 C5.51757479 -0.02467609 11.03511761 -0.04284856 16.55273438 -0.05493164 C18.43066975 -0.05996763 20.3086012 -0.06679671 22.18652344 -0.07543945 C24.88217132 -0.08753713 27.57776747 -0.09323557 30.2734375 -0.09765625 C31.11619232 -0.10281754 31.95894714 -0.10797882 32.82723999 -0.11329651 C38.77225659 -0.11387171 38.77225659 -0.11387171 41 1 C41 53.8 41 106.6 41 161 C34.07 161 27.14 161 20 161 C19 160 19 160 18.87695217 157.39379025 C18.87833486 155.63639192 18.87833486 155.63639192 18.87974548 153.8434906 C18.87889106 153.19335135 18.87803663 152.5432121 18.87715632 151.87337166 C18.87549974 149.6791442 18.88102575 147.48499198 18.88647461 145.29077148 C18.88675647 143.72414146 18.88659877 142.1575113 18.8860321 140.59088135 C18.88574408 136.32453623 18.89164157 132.05821898 18.89860606 127.79188037 C18.90483882 123.33822949 18.90544334 118.88457803 18.90663147 114.43092346 C18.90974502 105.99132557 18.91795872 97.55174056 18.92798096 89.11214834 C18.93914137 79.50650556 18.94465236 69.90086218 18.94967639 60.29521453 C18.96014132 40.53013562 18.97794161 20.76506908 19 1 C12.73 1 6.46 1 0 1 C0 0.67 0 0.34 0 0 Z " fill="#C8B27D" transform="translate(220,276)"/>
<path d="M0 0 C6.93 0 13.86 0 21 0 C21 50.82 21 101.64 21 154 C14.4 154 7.8 154 1 154 C0 153 0 153 -0.12304783 150.48749447 C-0.12212604 149.36014165 -0.12120424 148.23278883 -0.12025452 147.0712738 C-0.12162918 145.78253357 -0.12300385 144.49379333 -0.12442017 143.16600037 C-0.12088055 141.72451759 -0.11724573 140.28303505 -0.11352539 138.84155273 C-0.11324353 137.33403526 -0.11340123 135.82651764 -0.1139679 134.31900024 C-0.11425591 130.21380656 -0.10835861 126.10864185 -0.10139394 122.00345492 C-0.09516099 117.7179674 -0.09455665 113.43247928 -0.09336853 109.14698792 C-0.09025504 101.02613348 -0.08204141 92.90529244 -0.07201904 84.78444391 C-0.06085845 75.54155126 -0.05534759 66.29865798 -0.05032361 57.05576026 C-0.03985881 38.03716569 -0.02205862 19.01858441 0 0 Z " fill="#0F281C" transform="translate(116,283)"/>
<path d="M0 0 C0.79148437 -0.01417969 1.58296875 -0.02835937 2.3984375 -0.04296875 C4.625 0.1875 4.625 0.1875 7.625 2.1875 C8.80078125 4.76953125 8.80078125 4.76953125 9.9375 8 C11.59712459 12.52445274 13.36388467 16.89991567 15.4375 21.25 C18.15321434 27.02886994 20.61054853 32.89150591 23 38.8125 C23.53717651 40.12939819 23.53717651 40.12939819 24.08520508 41.47290039 C24.41544678 42.29910889 24.74568848 43.12531738 25.0859375 43.9765625 C25.38290527 44.71600098 25.67987305 45.45543945 25.98583984 46.21728516 C26.625 48.1875 26.625 48.1875 26.625 51.1875 C22.665 51.1875 18.705 51.1875 14.625 51.1875 C13.305 48.2175 11.985 45.2475 10.625 42.1875 C4.025 41.8575 -2.575 41.5275 -9.375 41.1875 C-10.365 44.1575 -11.355 47.1275 -12.375 50.1875 C-13.375 51.1875 -13.375 51.1875 -16.09765625 51.28515625 C-17.19980469 51.27355469 -18.30195313 51.26195312 -19.4375 51.25 C-20.54222656 51.24097656 -21.64695312 51.23195313 -22.78515625 51.22265625 C-24.06712891 51.20525391 -24.06712891 51.20525391 -25.375 51.1875 C-24.80127824 46.9656562 -23.81005867 43.40869621 -22.125 39.5 C-21.67640625 38.45328125 -21.2278125 37.4065625 -20.765625 36.328125 C-19.49400166 33.45625657 -18.19220977 30.60117557 -16.875 27.75 C-15.01753152 23.72063263 -13.37667513 19.65200004 -11.8125 15.5 C-5.97438636 0.04833646 -5.97438636 0.04833646 0 0 Z M-0.375 18.1875 C-1.04854499 19.62179001 -1.71359701 21.06007057 -2.375 22.5 C-2.74625 23.30050781 -3.1175 24.10101563 -3.5 24.92578125 C-4.55540667 27.24963959 -4.55540667 27.24963959 -4.375 30.1875 C-1.075 30.1875 2.225 30.1875 5.625 30.1875 C5.14809796 28.56183394 4.66840334 26.93698689 4.1875 25.3125 C3.92066406 24.40757812 3.65382813 23.50265625 3.37890625 22.5703125 C2.69886174 20.20474619 2.69886174 20.20474619 1.625 18.1875 C0.965 18.1875 0.305 18.1875 -0.375 18.1875 Z " fill="#1A2F23" transform="translate(47.375,453.8125)"/>
<path d="M0 0 C3.79296875 0.6015625 3.79296875 0.6015625 5.33349609 2.19628906 C6.8454942 4.48446367 8.17965919 6.81211022 9.48046875 9.2265625 C10.400232 10.84421063 11.32078983 12.46140726 12.2421875 14.078125 C12.67192871 14.85317383 13.10166992 15.62822266 13.54443359 16.42675781 C14.66229513 18.37394408 15.84879796 20.21691551 17.125 22.0625 C18.79296875 24.6015625 18.79296875 24.6015625 18.79296875 26.6015625 C19.45296875 26.6015625 20.11296875 26.6015625 20.79296875 26.6015625 C21.06753906 26.04597656 21.34210938 25.49039062 21.625 24.91796875 C23.89662339 20.41270899 26.32222179 16.00028363 28.79296875 11.6015625 C29.65341797 10.03535156 29.65341797 10.03535156 30.53125 8.4375 C31.11261719 7.43976563 31.69398438 6.44203125 32.29296875 5.4140625 C32.81890625 4.49238281 33.34484375 3.57070313 33.88671875 2.62109375 C35.79296875 0.6015625 35.79296875 0.6015625 38.94921875 0.23828125 C41.79296875 0.6015625 41.79296875 0.6015625 42.79296875 1.6015625 C42.88616324 3.1363922 42.91042675 4.67548332 42.90649414 6.21313477 C42.90641861 7.19407608 42.90634308 8.1750174 42.90626526 9.1856842 C42.90110397 10.2523381 42.89594269 11.318992 42.890625 12.41796875 C42.88921005 13.50416 42.8877951 14.59035126 42.88633728 15.7094574 C42.88071923 19.19435325 42.86816367 22.67918592 42.85546875 26.1640625 C42.85045608 28.52018137 42.84589277 30.87630124 42.84179688 33.23242188 C42.83074394 39.02215714 42.81398826 44.81185531 42.79296875 50.6015625 C40.48296875 50.6015625 38.17296875 50.6015625 35.79296875 50.6015625 C35.46296875 39.3815625 35.13296875 28.1615625 34.79296875 16.6015625 C29.32762373 25.09478546 29.32762373 25.09478546 24.35546875 33.7890625 C23.86175781 34.71074219 23.36804688 35.63242187 22.859375 36.58203125 C22.50746094 37.24847656 22.15554688 37.91492188 21.79296875 38.6015625 C20.47296875 38.6015625 19.15296875 38.6015625 17.79296875 38.6015625 C16.36083984 36.99682617 16.36083984 36.99682617 15.06640625 34.76953125 C14.59203125 33.97095703 14.11765625 33.17238281 13.62890625 32.34960938 C13.14679688 31.50462891 12.6646875 30.65964844 12.16796875 29.7890625 C11.19671787 28.13665804 10.22536767 26.48431194 9.25390625 24.83203125 C8.82899902 24.09364014 8.4040918 23.35524902 7.96630859 22.59448242 C6.96580595 20.89512681 5.8868419 19.24237222 4.79296875 17.6015625 C4.7679126 18.56570068 4.74285645 19.52983887 4.71704102 20.52319336 C4.62311569 24.08844092 4.52285936 27.65348683 4.4206543 31.21850586 C4.3772489 32.76370539 4.33557804 34.30895464 4.2956543 35.85424805 C4.23808676 38.07095346 4.17435451 40.2874073 4.109375 42.50390625 C4.08430626 43.54610573 4.08430626 43.54610573 4.05873108 44.60935974 C3.90684046 49.48769079 3.90684046 49.48769079 2.79296875 50.6015625 C0.45999442 50.64249187 -1.8740835 50.64397973 -4.20703125 50.6015625 C-4.23229963 43.64152803 -4.24986347 36.6815053 -4.26196289 29.72143555 C-4.26700466 27.35163938 -4.2738379 24.98184635 -4.2824707 22.61206055 C-4.29454315 19.21402211 -4.30026096 15.81602465 -4.3046875 12.41796875 C-4.30984879 11.35131485 -4.31501007 10.28466095 -4.32032776 9.1856842 C-4.32040329 8.20474289 -4.32047882 7.22380157 -4.32055664 6.21313477 C-4.32277725 5.34487564 -4.32499786 4.47661652 -4.32728577 3.58204651 C-4.12622247 0.27071438 -3.37681285 0.63340948 0 0 Z " fill="#253329" transform="translate(328.20703125,455.3984375)"/>
<path d="M0 0 C1.93559313 -0.13504138 3.873872 -0.23201129 5.8125 -0.3125 C6.89144531 -0.37050781 7.97039062 -0.42851562 9.08203125 -0.48828125 C10.04496094 -0.32714844 11.00789063 -0.16601562 12 0 C15.54770476 5.0467112 17.47072081 10.91157867 19.6875 16.625 C20.10322266 17.67429687 20.51894531 18.72359375 20.94726562 19.8046875 C21.33978516 20.81015625 21.73230469 21.815625 22.13671875 22.8515625 C22.67365356 24.22562256 22.67365356 24.22562256 23.22143555 25.62744141 C24 28 24 28 24 31 C24.66 31 25.32 31 26 31 C26.25197144 30.11078857 26.25197144 30.11078857 26.5090332 29.20361328 C28.42120314 22.62656811 30.70884953 16.25763701 33.1875 9.875 C33.73954102 8.44027344 33.73954102 8.44027344 34.30273438 6.9765625 C35.19854655 4.64977762 36.09880246 2.32470435 37 0 C41.29 0 45.58 0 50 0 C49.30757364 3.4621318 48.72992865 5.97456554 47.43359375 9.125 C47.11664551 9.90423828 46.79969727 10.68347656 46.47314453 11.48632812 C46.13138184 12.31583984 45.78961914 13.14535156 45.4375 14 C42.03969727 22.35377404 38.77952009 30.75044676 35.61499023 39.1953125 C35.14428101 40.44441406 35.14428101 40.44441406 34.6640625 41.71875 C34.39029785 42.45029297 34.1165332 43.18183594 33.83447266 43.93554688 C32.99825317 46.0043216 31.997907 48.004186 31 50 C27.04 50 23.08 50 19 50 C15.12578751 41.79578531 11.86209166 33.48233806 8.73193359 24.97802734 C5.16844244 15.34236652 5.16844244 15.34236652 1.1875 5.875 C0 3 0 3 0 0 Z " fill="#1A2E22" transform="translate(104,455)"/>
<path d="M0 0 C2.9375 2.1875 2.9375 2.1875 5 4 C4.49701212 8.40114397 2.91227269 10.71195019 0 14 C-4.73684211 12.15789474 -4.73684211 12.15789474 -6.875 10.875 C-11.0057883 9.17408717 -15.020406 9.81517094 -19.3125 10.625 C-22.18086833 11.77573574 -22.18086833 11.77573574 -23.375 14.5 C-24.52629759 20.94726651 -25.12871514 28.0405426 -22 34 C-18.05742577 36.55107744 -13.56345707 36.46257265 -9 36 C-5.63178728 35.10202887 -5.63178728 35.10202887 -3 34 C-3 33.34 -3 32.68 -3 32 C1.25219775 32.47246642 3.37314725 34.77272377 6 38 C6.125 40.0625 6.125 40.0625 5 42 C0.02850686 46.97149314 -5.93999826 49.12177779 -12.875 49.4375 C-18.27483722 49.2619635 -23.39437133 47.86966094 -28 45 C-29.28125 42.859375 -29.28125 42.859375 -30 41 C-30.66 41 -31.32 41 -32 41 C-37.56218641 32.73618018 -38.22662572 24.6183033 -37 15 C-34.98074941 8.67195485 -31.87962616 3.07785221 -25.9140625 -0.1171875 C-17.1906674 -4.107384 -8.48667961 -4.75254058 0 0 Z " fill="#172C20" transform="translate(209,458)"/>
<path d="M0 0 C6.63844243 4.46796039 9.538388 8.81792111 11.6875 16.4375 C12.6642636 24.44696155 12.01085508 31.89785564 8.4375 39.1875 C4.08589444 44.20858334 -1.83834468 48.6793984 -8.63671875 49.203125 C-17.24862226 49.33544618 -23.35582516 48.73587563 -29.8125 42.75 C-34.74505503 37.82916126 -36.36815463 32.20598915 -36.51904297 25.44018555 C-36.51275879 24.67617432 -36.50647461 23.91216309 -36.5 23.125 C-36.49500488 22.3306958 -36.49000977 21.5363916 -36.48486328 20.71801758 C-36.24281505 12.58770086 -33.82976979 7.95839569 -28.25 2.125 C-19.26027819 -3.75289503 -9.76132144 -4.738343 0 0 Z M-24 8 C-27.79869343 12.8634787 -30.56115872 18.74869188 -30 25 C-28.37161369 32.12670306 -26.22512661 37.02651493 -20 41 C-14.85780475 42.71406508 -9.25169362 42.90067745 -4.1875 40.875 C0.62852986 36.7469744 4.43745953 32.42243353 5.25390625 26.00390625 C5.57006817 20.11921499 4.2993098 14.94344747 1 10 C0.01 9.67 -0.98 9.34 -2 9 C-2 8.34 -2 7.68 -2 7 C-5.49768983 4.85349597 -8.37351737 4.70159474 -12.4375 4.6875 C-13.54996094 4.67074219 -14.66242188 4.65398437 -15.80859375 4.63671875 C-19.38151028 5.04342773 -21.16528404 5.81643641 -24 8 Z " fill="#2E3D32" transform="translate(308,458)"/>
<path d="M0 0 C1.50046875 0.00386719 1.50046875 0.00386719 3.03125 0.0078125 C4.0315625 0.00523437 5.031875 0.00265625 6.0625 0 C8.53125 0.1328125 8.53125 0.1328125 9.53125 1.1328125 C9.61986992 3.9444463 9.64647355 6.73139505 9.62890625 9.54296875 C9.6274913 10.38500351 9.62607635 11.22703827 9.62461853 12.09458923 C9.61900263 14.79486585 9.60644748 17.49506078 9.59375 20.1953125 C9.58873705 22.02148318 9.58417379 23.84765516 9.58007812 25.67382812 C9.56987716 30.16021335 9.55030499 34.64642105 9.53125 39.1328125 C16.46125 39.1328125 23.39125 39.1328125 30.53125 39.1328125 C30.53125 42.7628125 30.53125 46.3928125 30.53125 50.1328125 C19.31125 50.1328125 8.09125 50.1328125 -3.46875 50.1328125 C-3.49165338 43.17272948 -3.51158219 36.21277617 -3.52368164 29.25268555 C-3.52872341 26.88288938 -3.53555665 24.51309635 -3.54418945 22.14331055 C-3.5562619 18.74527211 -3.56197971 15.34727465 -3.56640625 11.94921875 C-3.57156754 10.88256485 -3.57672882 9.81591095 -3.58204651 8.7169342 C-3.58212204 7.73599289 -3.58219757 6.75505157 -3.58227539 5.74438477 C-3.584496 4.87612564 -3.58671661 4.00786652 -3.58900452 3.11329651 C-3.40787598 0.13027208 -2.99687511 0.16122429 0 0 Z " fill="#172E21" transform="translate(79.46875,454.8671875)"/>
<path d="M0 0 C2.31 0 4.62 0 7 0 C7.33 6.6 7.66 13.2 8 20 C15.92 20.33 23.84 20.66 32 21 C31.96041741 14.4629715 31.96041741 14.4629715 31.90991211 7.92602539 C31.90741455 7.11641357 31.90491699 6.30680176 31.90234375 5.47265625 C31.89448853 4.22367554 31.89448853 4.22367554 31.88647461 2.94946289 C32 1 32 1 33 0 C34.98 0 36.96 0 39 0 C39 16.5 39 33 39 50 C36.69 50 34.38 50 32 50 C32 42.74 32 35.48 32 28 C23.75 28 15.5 28 7 28 C7 35.26 7 42.52 7 50 C4.69 50 2.38 50 0 50 C0 33.5 0 17 0 0 Z " fill="#09190E" transform="translate(227,456)"/>
<path d="M0 0 C1.0374939 0.00303635 1.0374939 0.00303635 2.09594727 0.00613403 C2.80243408 0.00517731 3.5089209 0.00422058 4.23681641 0.00323486 C5.7331552 0.00255321 7.22949694 0.00440649 8.72583008 0.00857544 C11.02374884 0.01392396 13.32147213 0.00863003 15.61938477 0.00222778 C17.06990603 0.00288857 18.52042718 0.00416974 19.97094727 0.00613403 C20.66260986 0.0041098 21.35427246 0.00208557 22.06689453 0 C26.91849503 0.0239943 26.91849503 0.0239943 28.03344727 1.13894653 C28.03344727 3.11894653 28.03344727 5.09894653 28.03344727 7.13894653 C19.12344727 7.13894653 10.21344727 7.13894653 1.03344727 7.13894653 C1.03344727 11.75894653 1.03344727 16.37894653 1.03344727 21.13894653 C8.95344727 21.46894653 16.87344727 21.79894653 25.03344727 22.13894653 C25.03344727 24.11894653 25.03344727 26.09894653 25.03344727 28.13894653 C17.11344727 28.13894653 9.19344727 28.13894653 1.03344727 28.13894653 C1.03344727 32.75894653 1.03344727 37.37894653 1.03344727 42.13894653 C4.3897829 42.97803044 7.04130214 43.32258533 10.45532227 43.45535278 C11.9925293 43.51819458 11.9925293 43.51819458 13.56079102 43.58230591 C14.62426758 43.62162231 15.68774414 43.66093872 16.78344727 43.70144653 C17.86239258 43.74463013 18.94133789 43.78781372 20.05297852 43.83230591 C22.71301155 43.93823643 25.37313539 44.04031074 28.03344727 44.13894653 C28.03344727 46.11894653 28.03344727 48.09894653 28.03344727 50.13894653 C16.81344727 50.13894653 5.59344727 50.13894653 -5.96655273 50.13894653 C-5.98945612 43.17886351 -6.00938492 36.21891021 -6.02148438 29.25881958 C-6.02652615 26.88902342 -6.03335938 24.51923038 -6.04199219 22.14944458 C-6.05406463 18.75140615 -6.05978244 15.35340868 -6.06420898 11.95535278 C-6.06937027 10.88869888 -6.07453156 9.82204498 -6.07984924 8.72306824 C-6.07992477 7.74212692 -6.08000031 6.76118561 -6.08007812 5.7505188 C-6.08229874 4.88225967 -6.08451935 4.01400055 -6.08680725 3.11943054 C-5.84548102 -0.85499595 -3.40342087 0.01683211 0 0 Z " fill="#07180D" transform="translate(383.966552734375,455.8610534667969)"/>
<path d="M0 0 C3.63 0 7.26 0 11 0 C12 1 12 1 12.12025452 2.98048401 C12.1169236 4.2828727 12.1169236 4.2828727 12.11352539 5.61157227 C12.11344986 6.59251358 12.11337433 7.5734549 12.11329651 8.5841217 C12.10813522 9.6507756 12.10297394 10.7174295 12.09765625 11.81640625 C12.0962413 12.9025975 12.09482635 13.98878876 12.09336853 15.1078949 C12.08775048 18.59279075 12.07519492 22.07762342 12.0625 25.5625 C12.05748733 27.91861887 12.05292402 30.27473874 12.04882812 32.63085938 C12.03777518 38.42059743 12.02049846 44.21028799 12 50 C8.04 50 4.08 50 0 50 C0 33.5 0 17 0 0 Z " fill="#1F3227" transform="translate(156,455)"/>
<path d="M0 0 C1.59912109 2.47436523 1.59912109 2.47436523 2.7734375 5.55859375 C3.20527344 6.66654297 3.63710937 7.77449219 4.08203125 8.91601562 C4.50871094 10.07810547 4.93539062 11.24019531 5.375 12.4375 C5.82488281 13.59572266 6.27476563 14.75394531 6.73828125 15.94726562 C10 24.47829597 10 24.47829597 10 28 C6.04 28 2.08 28 -2 28 C-4.34552782 23.79759598 -5 21.98887899 -5 17 C-12.26 17 -19.52 17 -27 17 C-25 13 -25 13 -23 10 C-22.34 10.33 -21.68 10.66 -21 11 C-20.67 10.01 -20.34 9.02 -20 8 C-15.545 7.505 -15.545 7.505 -11 7 C-11 4.69 -11 2.38 -11 0 C-6.65549221 -2.30003354 -4.42557485 -2.07275129 0 0 Z " fill="#0E2618" transform="translate(64,477)"/>
<path d="M0 0 C1.93559313 -0.13504138 3.873872 -0.23201129 5.8125 -0.3125 C6.89144531 -0.37050781 7.97039062 -0.42851562 9.08203125 -0.48828125 C12 0 12 0 13.78515625 2.29296875 C16.76440769 8.93162229 18.35255406 14.20923441 18.7890625 21.484375 C18.92360761 23.97201562 18.92360761 23.97201562 19.5859375 26.203125 C20 28 20 28 19 30 C17.66923011 30.34342449 16.33568021 30.67619874 15 31 C14.34 31.66 13.68 32.32 13 33 C13 32.34 13 31.68 13 31 C12.34 31 11.68 31 11 31 C10.7733667 30.40050537 10.5467334 29.80101074 10.31323242 29.18334961 C9.27289569 26.43413449 8.23021569 23.68581367 7.1875 20.9375 C6.83107422 19.99455078 6.47464844 19.05160156 6.10742188 18.08007812 C4.56333514 14.01445526 3.01502163 9.97415327 1.23828125 6.00390625 C0 3 0 3 0 0 Z " fill="#172C20" transform="translate(104,455)"/>
<path d="M0 0 C6.27 0 12.54 0 19 0 C19 50.16 19 100.32 19 152 C12.73 152 6.46 152 0 152 C0.495 151.01 0.495 151.01 1 150 C9.415 150.495 9.415 150.495 18 151 C17.67 101.83 17.34 52.66 17 2 C11.72 2 6.44 2 1 2 C1 48.86 1 95.72 1 144 C0.67 144 0.34 144 0 144 C0 96.48 0 48.96 0 0 Z " fill="#010F05" transform="translate(117,284)"/>
<path d="M0 0 C2.31 0 4.62 0 7 0 C7.33 6.6 7.66 13.2 8 20 C15.92 20.33 23.84 20.66 32 21 C32 14.4 32 7.8 32 1 C32.33 1 32.66 1 33 1 C33 7.93 33 14.86 33 22 C24.09 22 15.18 22 6 22 C6 15.07 6 8.14 6 1 C4.35 1 2.7 1 1 1 C1.33 1.99 1.66 2.98 2 4 C2.14715199 5.62567079 2.24721867 7.25586857 2.31640625 8.88671875 C2.35830078 9.82451172 2.40019531 10.76230469 2.44335938 11.72851562 C2.48267578 12.70498047 2.52199219 13.68144531 2.5625 14.6875 C2.62727539 16.16959961 2.62727539 16.16959961 2.69335938 17.68164062 C2.79941654 20.12095546 2.90147714 22.56037113 3 25 C3.66 24.67 4.32 24.34 5 24 C5.33 24.66 5.66 25.32 6 26 C19.365 26.495 19.365 26.495 33 27 C33 34.59 33 42.18 33 50 C32.67 50 32.34 50 32 50 C32 42.74 32 35.48 32 28 C23.75 28 15.5 28 7 28 C7 35.26 7 42.52 7 50 C4.69 50 2.38 50 0 50 C0 33.5 0 17 0 0 Z " fill="#404E42" transform="translate(227,456)"/>
<path d="M0 0 C1.0374939 0.00303635 1.0374939 0.00303635 2.09594727 0.00613403 C2.80243408 0.00517731 3.5089209 0.00422058 4.23681641 0.00323486 C5.7331552 0.00255321 7.22949694 0.00440649 8.72583008 0.00857544 C11.02374884 0.01392396 13.32147213 0.00863003 15.61938477 0.00222778 C17.06990603 0.00288857 18.52042718 0.00416974 19.97094727 0.00613403 C20.66260986 0.0041098 21.35427246 0.00208557 22.06689453 0 C26.91849503 0.0239943 26.91849503 0.0239943 28.03344727 1.13894653 C28.03344727 3.11894653 28.03344727 5.09894653 28.03344727 7.13894653 C19.12344727 7.13894653 10.21344727 7.13894653 1.03344727 7.13894653 C1.03344727 11.75894653 1.03344727 16.37894653 1.03344727 21.13894653 C2.68344727 21.13894653 4.33344727 21.13894653 6.03344727 21.13894653 C6.03344727 21.46894653 6.03344727 21.79894653 6.03344727 22.13894653 C4.05344727 22.13894653 2.07344727 22.13894653 0.03344727 22.13894653 C-0.29655273 20.15894653 -0.62655273 18.17894653 -0.96655273 16.13894653 C-2.28655273 15.80894653 -3.60655273 15.47894653 -4.96655273 15.13894653 C-4.96655273 26.68894653 -4.96655273 38.23894653 -4.96655273 50.13894653 C-5.29655273 50.13894653 -5.62655273 50.13894653 -5.96655273 50.13894653 C-5.99182111 43.17891206 -6.00938496 36.21888933 -6.02148438 29.25881958 C-6.02652615 26.88902342 -6.03335938 24.51923038 -6.04199219 22.14944458 C-6.05406463 18.75140615 -6.05978244 15.35340868 -6.06420898 11.95535278 C-6.06937027 10.88869888 -6.07453156 9.82204498 -6.07984924 8.72306824 C-6.07992477 7.74212692 -6.08000031 6.76118561 -6.08007812 5.7505188 C-6.08229874 4.88225967 -6.08451935 4.01400055 -6.08680725 3.11943054 C-5.84548102 -0.85499595 -3.40342087 0.01683211 0 0 Z " fill="#405045" transform="translate(383.966552734375,455.8610534667969)"/>
<path d="M0 0 C0.66 0 1.32 0 2 0 C2.33 53.13 2.66 106.26 3 161 C2.01 161 1.02 161 0 161 C0 107.87 0 54.74 0 0 Z " fill="#CBC4A2" transform="translate(177,275)"/>
<path d="M0 0 C0.66 0 1.32 0 2 0 C2.33 47.19 2.66 94.38 3 143 C2.34 143 1.68 143 1 143 C1 149.6 1 156.2 1 163 C0.67 163 0.34 163 0 163 C0 109.21 0 55.42 0 0 Z " fill="#BFAF85" transform="translate(197,110)"/>
<path d="M0 0 C5.26282894 2.55468369 9.77773033 6.33820814 12.21484375 11.73046875 C14.76178081 19.82073941 15.21697837 27.10313007 12.27734375 35.10546875 C11.28734375 35.60046875 11.28734375 35.60046875 10.27734375 36.10546875 C10.27734375 34.12546875 10.27734375 32.14546875 10.27734375 30.10546875 C8.79234375 30.60046875 8.79234375 30.60046875 7.27734375 31.10546875 C7.2515625 30.41582031 7.22578125 29.72617187 7.19921875 29.015625 C6.80227794 22.43903744 5.77753077 16.78501749 2.27734375 11.10546875 C1.61734375 10.77546875 0.95734375 10.44546875 0.27734375 10.10546875 C0.27734375 9.44546875 0.27734375 8.78546875 0.27734375 8.10546875 C-3.28336937 7.05664484 -6.77793522 6.80159922 -10.47265625 6.54296875 C-11.643125 6.45917969 -12.81359375 6.37539063 -14.01953125 6.2890625 C-15.35757812 6.19818359 -15.35757812 6.19818359 -16.72265625 6.10546875 C-16.72265625 5.77546875 -16.72265625 5.44546875 -16.72265625 5.10546875 C-11.27765625 4.61046875 -11.27765625 4.61046875 -5.72265625 4.10546875 C-6.05265625 3.77546875 -6.38265625 3.44546875 -6.72265625 3.10546875 C-7.05265625 2.44546875 -7.38265625 1.78546875 -7.72265625 1.10546875 C-10.0786486 0.63795087 -10.0786486 0.63795087 -12.78515625 0.48046875 C-13.70425781 0.40570313 -14.62335938 0.3309375 -15.5703125 0.25390625 C-16.28058594 0.20492188 -16.99085938 0.1559375 -17.72265625 0.10546875 C-11.77714861 -3.13167316 -6.17262896 -2.24747003 0 0 Z " fill="#18261C" transform="translate(305.72265625,456.89453125)"/>
<path d="M0 0 C1.65 0 3.3 0 5 0 C5 16.17 5 32.34 5 49 C3.02 49 1.04 49 -1 49 C-1.14305697 43.37664368 -1.28545568 37.75327121 -1.42724609 32.12988281 C-1.4755679 30.21711782 -1.52406914 28.30435735 -1.57275391 26.39160156 C-1.64272554 23.64128777 -1.71205054 20.89095832 -1.78125 18.140625 C-1.80312378 17.28631897 -1.82499756 16.43201294 -1.84753418 15.55181885 C-1.86755493 14.75129089 -1.88757568 13.95076294 -1.90820312 13.12597656 C-1.92596802 12.42426331 -1.94373291 11.72255005 -1.96203613 10.99957275 C-2.01266292 8.33303867 -2 5.66691453 -2 3 C-1.34 3 -0.68 3 0 3 C0 2.01 0 1.02 0 0 Z " fill="#0B1F14" transform="translate(366,457)"/>
<path d="M0 0 C1.24523437 0.02707031 2.49046875 0.05414063 3.7734375 0.08203125 C4.71445312 0.11683594 5.65546875 0.15164063 6.625 0.1875 C5.635 0.6825 5.635 0.6825 4.625 1.1875 C5.945 1.8475 7.265 2.5075 8.625 3.1875 C6.625 5.1875 6.625 5.1875 4.0234375 5.3828125 C3.02570313 5.35960937 2.02796875 5.33640625 1 5.3125 C-0.50433594 5.28542969 -0.50433594 5.28542969 -2.0390625 5.2578125 C-2.80992187 5.23460937 -3.58078125 5.21140625 -4.375 5.1875 C-4.375 5.8475 -4.375 6.5075 -4.375 7.1875 C-4.97957031 7.43242187 -5.58414062 7.67734375 -6.20703125 7.9296875 C-10.51275206 10.42778137 -12.64212767 15.5651133 -13.94921875 20.2421875 C-14.72786483 25.27810631 -14.12875911 30.17790096 -13.375 35.1875 C-15.355 35.6825 -15.355 35.6825 -17.375 36.1875 C-16.88 31.7325 -16.88 31.7325 -16.375 27.1875 C-17.695 27.5175 -19.015 27.8475 -20.375 28.1875 C-21.57965531 12.60346703 -21.57965531 12.60346703 -17.25 6.875 C-12.34492006 1.32680958 -7.27925218 -0.20601657 0 0 Z " fill="#29382D" transform="translate(293.375,456.8125)"/>
<path d="M0 0 C3.63 0 7.26 0 11 0 C11 10.56 11 21.12 11 32 C10.67 32 10.34 32 10 32 C10 21.77 10 11.54 10 1 C7.36 1 4.72 1 2 1 C2 16.18 2 31.36 2 47 C11.57 47 21.14 47 31 47 C31.33 44.69 31.66 42.38 32 40 C25.73 40 19.46 40 13 40 C13 39.67 13 39.34 13 39 C19.6 39 26.2 39 33 39 C34 42 34 42 34 49 C22.78 49 11.56 49 0 49 C0 32.83 0 16.66 0 0 Z " fill="#2C3A2E" transform="translate(76,456)"/>
<path d="M0 0 C0 0.66 0 1.32 0 2 C0.66 2 1.32 2 2 2 C2.625 4.875 2.625 4.875 3 8 C2.34 8.66 1.68 9.32 1 10 C0.28591666 11.98356483 -0.38617742 13.98315437 -1 16 C-2.65 16 -4.3 16 -6 16 C-6.99 17.98 -7.98 19.96 -9 22 C-10.32 22 -11.64 22 -13 22 C-13.27441338 16.51173243 -13.36937422 14.35210837 -10 10 C-10.020625 8.824375 -10.04125 7.64875 -10.0625 6.4375 C-10 3 -10 3 -8.375 1.0625 C-5.43969547 -0.25066255 -3.18136394 -0.21691118 0 0 Z " fill="#0A2216" transform="translate(51,456)"/>
<path d="M0 0 C0.33 0 0.66 0 1 0 C1 6.93 1 13.86 1 21 C4.3 20.67 7.6 20.34 11 20 C12.70991864 19.93258333 14.42160779 19.89029301 16.1328125 19.90234375 C16.9578125 19.90556641 17.7828125 19.90878906 18.6328125 19.91210938 C19.86644531 19.92467773 19.86644531 19.92467773 21.125 19.9375 C22.41664062 19.94426758 22.41664062 19.94426758 23.734375 19.95117188 C25.82294785 19.96277506 27.91148407 19.9807016 30 20 C30 20.33 30 20.66 30 21 C48.15 21.33 66.3 21.66 85 22 C85 15.4 85 8.8 85 2 C82.03 2 79.06 2 76 2 C76 1.67 76 1.34 76 1 C79.3 1 82.6 1 86 1 C86 8.26 86 15.52 86 23 C75.08230233 23.02256153 64.16462005 23.04092121 53.24690437 23.05181217 C48.17777772 23.05703837 43.1086678 23.06413128 38.03955078 23.07543945 C33.15071319 23.08627763 28.26189173 23.09227882 23.37304306 23.09487724 C21.50466533 23.09672981 19.63628852 23.10034721 17.76791763 23.10573006 C15.15792154 23.11295281 12.54799271 23.11399041 9.93798828 23.11352539 C8.77058105 23.1189183 8.77058105 23.1189183 7.57958984 23.12442017 C2.22810432 23.11405216 2.22810432 23.11405216 0 22 C0 14.74 0 7.48 0 0 Z " fill="#626A5E" transform="translate(93,252)"/>
<path d="M0 0 C0.33 0 0.66 0 1 0 C0.67 45.21 0.34 90.42 0 137 C-0.33 137 -0.66 137 -1 137 C-1.13183818 123.23721715 -1.26231714 109.47442211 -1.39115143 95.71161079 C-1.45104166 89.31815088 -1.51136676 82.92469573 -1.57275391 76.53125 C-1.63219155 70.33905888 -1.69039788 64.14685721 -1.74781799 57.95464706 C-1.76971804 55.61487301 -1.79203127 53.27510279 -1.81480408 50.93533707 C-1.87824903 44.40117937 -1.93178206 37.86706842 -1.97427368 31.33274078 C-2.00177407 27.77017673 -2.04310466 24.20788342 -2.08374023 20.64544678 C-2.10258551 18.25566008 -2.12091184 15.86586923 -2.13867188 13.47607422 C-2.1546064 12.35447969 -2.17054092 11.23288517 -2.18695831 10.07730293 C-2.19225304 9.04703924 -2.19754776 8.01677555 -2.20300293 6.95529175 C-2.21208427 6.04442747 -2.22116562 5.13356319 -2.23052216 4.19509697 C-2 2 -2 2 0 0 Z " fill="#CDBFA0" transform="translate(199,276)"/>
<path d="M0 0 C0.66 0 1.32 0 2 0 C3.0480333 29.37582682 2.86335572 58.62045507 2 88 C1.34 88 0.68 88 0 88 C0 58.96 0 29.92 0 0 Z " fill="#07150B" transform="translate(320,162)"/>
<path d="M0 0 C0.33 0 0.66 0 1 0 C1.33 3.96 1.66 7.92 2 12 C2.99 12 3.98 12 5 12 C5 14.64 5 17.28 5 20 C5.66 19.67 6.32 19.34 7 19 C7.65213292 16.97536745 7.65213292 16.97536745 8 15 C8.20753906 15.53109375 8.41507812 16.0621875 8.62890625 16.609375 C11.10355424 22.28346328 13.38887038 24.41024787 19 27 C18.4740625 28.175625 18.4740625 28.175625 17.9375 29.375 C17.628125 30.24125 17.31875 31.1075 17 32 C17.33 32.66 17.66 33.32 18 34 C12.60963438 33.86524086 9.8512964 31.62409833 5.9296875 28.27734375 C0.68186264 22.08406057 -0.5880738 16.48374289 -0.25 8.5 C-0.23195313 7.67757813 -0.21390625 6.85515625 -0.1953125 6.0078125 C-0.1487283 4.00469196 -0.07700699 2.00218179 0 0 Z " fill="#222E25" transform="translate(272,472)"/>
<path d="M0 0 C0.33 0 0.66 0 1 0 C1.9001836 4.79593617 2.29439762 9.51399614 2.5625 14.375 C2.60568359 15.11105469 2.64886719 15.84710938 2.69335938 16.60546875 C2.79843799 18.40348068 2.89962093 20.20171958 3 22 C3.66 22 4.32 22 5 22 C5 30.58 5 39.16 5 48 C3.35 48 1.7 48 0 48 C0 32.16 0 16.32 0 0 Z " fill="#010C05" transform="translate(325,458)"/>
<path d="M0 0 C2.31 0 4.62 0 7 0 C7 16.33333333 7 32.66666667 7 49 C6.67 49 6.34 49 6 49 C5.67 40.75 5.34 32.5 5 24 C4.34 23.67 3.68 23.34 3 23 C2.67 17.72 2.34 12.44 2 7 C1.67 20.86 1.34 34.72 1 49 C0.67 49 0.34 49 0 49 C0 32.83 0 16.66 0 0 Z " fill="#37433A" transform="translate(324,457)"/>
<path d="M0 0 C1.98 0 3.96 0 6 0 C6 16.5 6 33 6 50 C4.02 50 2.04 50 0 50 C0 43.07 0 36.14 0 29 C1.32 29 2.64 29 4 29 C4.33 19.76 4.66 10.52 5 1 C3.35 1 1.7 1 0 1 C0 0.67 0 0.34 0 0 Z " fill="#18261C" transform="translate(260,456)"/>
<path d="M0 0 C2 1 2 1 2 1 Z M-5 -2 C-4.01 -1.505 -4.01 -1.505 -3 -1 C-2.67 -0.01 -2.34 0.98 -2 2 C-1.34 1.67 -0.68 1.34 0 1 C0 1.66 0 2.32 0 3 C9.24 3 18.48 3 28 3 C28 1.35 28 -0.3 28 -2 C28.33 -2 28.66 -2 29 -2 C29 -0.02 29 1.96 29 4 C20.09 4 11.18 4 2 4 C2 8.62 2 13.24 2 18 C3.65 18 5.3 18 7 18 C7 18.33 7 18.66 7 19 C5.02 19 3.04 19 1 19 C0.67 17.02 0.34 15.04 0 13 C-1.32 12.67 -2.64 12.34 -4 12 C-4 23.55 -4 35.1 -4 47 C-4.33 47 -4.66 47 -5 47 C-5 30.83 -5 14.66 -5 -2 Z " fill="#47534A" transform="translate(383,459)"/>
<path d="M0 0 C4.25219775 0.47246642 6.37314725 2.77272377 9 6 C9.125 8.0625 9.125 8.0625 8 10 C4.63836665 13.26558668 1.48837049 14.74743149 -3 16 C-3.2165625 14.63875 -3.2165625 14.63875 -3.4375 13.25 C-3.85910468 10.81406186 -4.4004146 8.39834161 -5 6 C-7.97 6 -10.94 6 -14 6 C-14 5.67 -14 5.34 -14 5 C-13.24074219 4.86722656 -12.48148438 4.73445313 -11.69921875 4.59765625 C-10.70535156 4.42105469 -9.71148437 4.24445313 -8.6875 4.0625 C-7.20830078 3.80146484 -7.20830078 3.80146484 -5.69921875 3.53515625 C-2.91810787 3.04253153 -2.91810787 3.04253153 0 2 C0 1.34 0 0.68 0 0 Z " fill="#32453A" transform="translate(206,490)"/>
<path d="M0 0 C1.65 0 3.3 0 5 0 C5 16.17 5 32.34 5 49 C3.02 49 1.04 49 -1 49 C-1 40.09 -1 31.18 -1 22 C-0.67 22 -0.34 22 0 22 C0 30.25 0 38.5 0 47 C0.99 47 1.98 47 3 47 C2.96447021 45.71311279 2.92894043 44.42622559 2.89233398 43.1003418 C2.76208433 38.33143277 2.6388821 33.56236333 2.51782227 28.79321289 C2.46441169 26.72805796 2.40908305 24.66295172 2.35180664 22.59790039 C2.26986961 19.63177998 2.19480371 16.66555359 2.12109375 13.69921875 C2.09405869 12.7741301 2.06702362 11.84904144 2.03916931 10.8959198 C2.01907303 10.03525406 1.99897675 9.17458832 1.97827148 8.2878418 C1.95828598 7.53061325 1.93830048 6.7733847 1.91770935 5.99320984 C2 4 2 4 3 1 C2.01 0.67 1.02 0.34 0 0 Z " fill="#1D281E" transform="translate(366,457)"/>
<path d="M0 0 C9.67525337 -0.47239031 15.51146476 0.419166 23 7 C22.49701212 11.40114397 20.91227269 13.71195019 18 17 C14.54074837 15.7508258 11.85306797 14.32472205 9 12 C10.65 12 12.3 12 14 12 C13.46375 11.278125 12.9275 10.55625 12.375 9.8125 C11 7 11 7 11.8125 4.1875 C12.204375 3.465625 12.59625 2.74375 13 2 C11.68 2.33 10.36 2.66 9 3 C9 2.34 9 1.68 9 1 C6.03 1 3.06 1 0 1 C0 0.67 0 0.34 0 0 Z " fill="#354539" transform="translate(191,455)"/>
<path d="M0 0 C3.10712143 1.48677212 4.88965581 3.37396923 7.08984375 6 C6.42984375 6 5.76984375 6 5.08984375 6 C5.41984375 7.65 5.74984375 9.3 6.08984375 11 C5.42984375 11 4.76984375 11 4.08984375 11 C3.75984375 11.66 3.42984375 12.32 3.08984375 13 C1.58984375 11.625 1.58984375 11.625 0.08984375 10 C0.08984375 9.34 0.08984375 8.68 0.08984375 8 C-3.47086937 6.95117609 -6.96543522 6.69613047 -10.66015625 6.4375 C-11.830625 6.35371094 -13.00109375 6.26992188 -14.20703125 6.18359375 C-15.54507812 6.09271484 -15.54507812 6.09271484 -16.91015625 6 C-16.91015625 5.67 -16.91015625 5.34 -16.91015625 5 C-11.46515625 4.505 -11.46515625 4.505 -5.91015625 4 C-6.24015625 3.67 -6.57015625 3.34 -6.91015625 3 C-7.24015625 2.34 -7.57015625 1.68 -7.91015625 1 C-10.2661486 0.53248212 -10.2661486 0.53248212 -12.97265625 0.375 C-13.89175781 0.30023438 -14.81085938 0.22546875 -15.7578125 0.1484375 C-16.46808594 0.09945313 -17.17835938 0.05046875 -17.91015625 0 C-11.83890208 -3.30560693 -6.28554795 -2.23486149 0 0 Z " fill="#3B473C" transform="translate(305.91015625,457)"/>
<path d="M0 0 C0.88816406 0.14179688 1.77632813 0.28359375 2.69140625 0.4296875 C1.37140625 0.7596875 0.05140625 1.0896875 -1.30859375 1.4296875 C-2.24240336 5.96109403 -2.24240336 5.96109403 -1.30859375 10.4296875 C-1.96859375 10.4296875 -2.62859375 10.4296875 -3.30859375 10.4296875 C-2.97859375 11.0896875 -2.64859375 11.7496875 -2.30859375 12.4296875 C-2.22168374 15.27398107 -2.19305573 18.09347926 -2.2109375 20.9375 C-2.21235245 21.77811981 -2.2137674 22.61873962 -2.21522522 23.48483276 C-2.22083138 26.17482025 -2.23338489 28.86472509 -2.24609375 31.5546875 C-2.25110796 33.37630088 -2.255671 35.19791557 -2.25976562 37.01953125 C-2.27080281 41.48961527 -2.28807155 45.95963736 -2.30859375 50.4296875 C-2.63859375 50.4296875 -2.96859375 50.4296875 -3.30859375 50.4296875 C-3.34617798 48.90045654 -3.34617798 48.90045654 -3.38452148 47.34033203 C-3.47856379 43.56448396 -3.57879212 39.78882123 -3.6809082 36.01318359 C-3.72426913 34.37781097 -3.76594336 32.74239273 -3.8059082 31.10693359 C-3.86358287 28.75864909 -3.92728504 26.41059446 -3.9921875 24.0625 C-4.00889999 23.32911407 -4.02561249 22.59572815 -4.04283142 21.84011841 C-4.09497337 18.00766442 -4.09497337 18.00766442 -5.30859375 14.4296875 C-7.28859375 15.0896875 -9.26859375 15.7496875 -11.30859375 16.4296875 C-11.63859375 15.7696875 -11.96859375 15.1096875 -12.30859375 14.4296875 C-11.04125874 11.94272892 -9.72961793 9.6569001 -8.24609375 7.3046875 C-7.86259766 6.64597656 -7.47910156 5.98726563 -7.08398438 5.30859375 C-4.95261826 1.91666679 -4.07483118 0.52919885 0 0 Z " fill="#536155" transform="translate(367.30859375,455.5703125)"/>
<path d="M0 0 C27.39 0 54.78 0 83 0 C82.67 0.66 82.34 1.32 82 2 C81.11574341 1.99777939 80.23148682 1.99555878 79.32043457 1.99327087 C70.96415805 1.97318689 62.6078897 1.95798462 54.25159454 1.94818783 C49.95613063 1.94298181 45.66068676 1.9359258 41.36523438 1.92456055 C37.21552841 1.91365033 33.06584165 1.907706 28.91612244 1.90512276 C27.33739418 1.90328312 25.75866692 1.89969089 24.1799469 1.89426994 C21.95913466 1.88695139 19.73840059 1.88601358 17.51757812 1.88647461 C16.25627075 1.884254 14.99496338 1.88203339 13.69543457 1.87974548 C9.7811851 2.00712054 5.88607909 2.51424011 2 3 C2 8.94 2 14.88 2 21 C1.67 21 1.34 21 1 21 C0.67 14.07 0.34 7.14 0 0 Z " fill="#C0B28C" transform="translate(178,88)"/>
<path d="M0 0 C2.43938372 3.65907558 3.9595942 7.44480457 5.625 11.5 C5.94984375 12.27214844 6.2746875 13.04429687 6.609375 13.83984375 C6.91617188 14.58363281 7.22296875 15.32742188 7.5390625 16.09375 C7.81959473 16.77115234 8.10012695 17.44855469 8.38916016 18.14648438 C9 20 9 20 9 23 C5.04 23 1.08 23 -3 23 C-3 21.68 -3 20.36 -3 19 C-1.68212715 17.97971135 -0.34789347 16.98028616 1 16 C1.79623822 13.90584196 1.79623822 13.90584196 2 12 C1.34 12 0.68 12 0 12 C0.33 9.36 0.66 6.72 1 4 C0.34 3.67 -0.32 3.34 -1 3 C-0.67 2.01 -0.34 1.02 0 0 Z " fill="#071C0F" transform="translate(65,482)"/>
<path d="M0 0 C4.29 0 8.58 0 13 0 C12.67 2.97 12.34 5.94 12 9 C12.66 9.33 13.32 9.66 14 10 C10.42619658 11.19126781 8.49116698 10.7349445 4.8125 10.0625 C3.72582031 9.86785156 2.63914063 9.67320312 1.51953125 9.47265625 C0.68808594 9.31667969 -0.14335937 9.16070312 -1 9 C-0.67 6.03 -0.34 3.06 0 0 Z " fill="#092013" transform="translate(190,495)"/>
<path d="M0 0 C0.66 0.33 1.32 0.66 2 1 C2.66796875 3.87109375 2.66796875 3.87109375 3.1875 7.4375 C3.45626953 9.19900391 3.45626953 9.19900391 3.73046875 10.99609375 C4 14 4 14 3 16 C1.66923011 16.34342449 0.33568021 16.67619874 -1 17 C-1.66 17.66 -2.32 18.32 -3 19 C-3 18.34 -3 17.68 -3 17 C-3.66 17 -4.32 17 -5 17 C-6.60355101 13.49223216 -7.22036864 10.85645121 -7 7 C-6.401875 6.773125 -5.80375 6.54625 -5.1875 6.3125 C-2.43648112 4.66188867 -1.47515363 2.8027919 0 0 Z " fill="#13271C" transform="translate(120,469)"/>
<path d="M0 0 C3.1875 -0.5 3.1875 -0.5 7 0 C9.31374079 2.35295674 10.90884077 4.88564969 12 8 C11.625 10.265625 11.625 10.265625 11 12 C10.67 11.67 10.34 11.34 10 11 C9.67 11.99 9.34 12.98 9 14 C9.66 14 10.32 14 11 14 C10 16 10 16 8 17 C7.67 27.56 7.34 38.12 7 49 C6.67 49 6.34 49 6 49 C5.97494385 47.8039917 5.9498877 46.6079834 5.92407227 45.37573242 C5.82996148 40.94202805 5.72974964 36.508479 5.62768555 32.07495117 C5.5843506 30.15539175 5.54267448 28.23579415 5.50268555 26.31616211 C5.44494822 23.55831386 5.38126365 20.80065759 5.31640625 18.04296875 C5.29969376 17.18350143 5.28298126 16.32403412 5.26576233 15.43852234 C5.24581711 14.63791885 5.22587189 13.83731537 5.20532227 13.01245117 C5.18977798 12.3085173 5.1742337 11.60458344 5.15821838 10.87931824 C5.05518396 8.77300917 5.05518396 8.77300917 4 6 C4.4375 3.8125 4.4375 3.8125 5 2 C3.35 1.67 1.7 1.34 0 1 C0 0.67 0 0.34 0 0 Z " fill="#556159" transform="translate(325,456)"/>
<path d="M0 0 C0.66 0.66 1.32 1.32 2 2 C4.81402683 2.37239227 4.81402683 2.37239227 8.1015625 2.4140625 C9.31328125 2.45273437 10.525 2.49140625 11.7734375 2.53125 C13.04445312 2.5621875 14.31546875 2.593125 15.625 2.625 C16.90375 2.66367187 18.1825 2.70234375 19.5 2.7421875 C22.66642211 2.83670756 25.83319166 2.919452 29 3 C29 10.59 29 18.18 29 26 C28.67 26 28.34 26 28 26 C28 18.74 28 11.48 28 4 C19.75 4 11.5 4 3 4 C3 11.26 3 18.52 3 26 C2.67 26 2.34 26 2 26 C1.67 21.38 1.34 16.76 1 12 C0.01 12 -0.98 12 -2 12 C-2.05422947 10.5629191 -2.09289723 9.12524538 -2.125 7.6875 C-2.14820313 6.88699219 -2.17140625 6.08648437 -2.1953125 5.26171875 C-2 3 -2 3 0 0 Z " fill="#768278" transform="translate(231,480)"/>
<path d="M0 0 C0.84755859 0.00322266 1.69511719 0.00644531 2.56835938 0.00976562 C3.8899707 0.02233398 3.8899707 0.02233398 5.23828125 0.03515625 C6.57729492 0.04192383 6.57729492 0.04192383 7.94335938 0.04882812 C10.14590112 0.06060642 12.34830724 0.07705461 14.55078125 0.09765625 C14.55078125 2.07765625 14.55078125 4.05765625 14.55078125 6.09765625 C6.63078125 6.09765625 -1.28921875 6.09765625 -9.44921875 6.09765625 C-9.44921875 9.72765625 -9.44921875 13.35765625 -9.44921875 17.09765625 C-9.77921875 17.09765625 -10.10921875 17.09765625 -10.44921875 17.09765625 C-10.44921875 13.13765625 -10.44921875 9.17765625 -10.44921875 5.09765625 C-2.52921875 5.09765625 5.39078125 5.09765625 13.55078125 5.09765625 C13.55078125 3.77765625 13.55078125 2.45765625 13.55078125 1.09765625 C13.22078125 2.08765625 12.89078125 3.07765625 12.55078125 4.09765625 C9.77936408 4.17855167 7.01030306 4.23809687 4.23828125 4.28515625 C3.45259766 4.31029297 2.66691406 4.33542969 1.85742188 4.36132812 C1.10009766 4.37099609 0.34277344 4.38066406 -0.4375 4.390625 C-1.13399658 4.40633545 -1.83049316 4.4220459 -2.5480957 4.43823242 C-4.99411658 4.00004068 -5.87623961 2.96328267 -7.44921875 1.09765625 C-4.6251011 0.1562837 -2.92003843 -0.01959757 0 0 Z " fill="#323E34" transform="translate(394.44921875,477.90234375)"/>
<path d="M0 0 C0.33 0 0.66 0 1 0 C1 4.62 1 9.24 1 14 C2.98 13.67 4.96 13.34 7 13 C8.87277417 12.98542779 10.74674599 13.02652086 12.6171875 13.12109375 C14.14472656 13.19360352 14.14472656 13.19360352 15.703125 13.26757812 C16.74984375 13.32365234 17.7965625 13.37972656 18.875 13.4375 C19.94492187 13.48970703 21.01484375 13.54191406 22.1171875 13.59570312 C24.74513239 13.72475399 27.37263613 13.85969152 30 14 C30 15.98 30 17.96 30 20 C29.67 20 29.34 20 29 20 C29 18.35 29 16.7 29 15 C22.73 15 16.46 15 10 15 C9.67 15.66 9.34 16.32 9 17 C6.75 17.66796875 6.75 17.66796875 4 18.1875 C2.63875 18.45626953 2.63875 18.45626953 1.25 18.73046875 C0.5075 18.81941406 -0.235 18.90835937 -1 19 C-2.91811433 17.08188567 -2.17438668 13.73410709 -2.1875 11.1875 C-2.20167969 9.94355469 -2.21585937 8.69960938 -2.23046875 7.41796875 C-2.01852668 4.27476006 -1.66475807 2.61228836 0 0 Z " fill="#263A2E" transform="translate(382,486)"/>
<path d="M0 0 C0.33 0 0.66 0 1 0 C1.07845345 3.76576564 0.98098903 7.13096449 0.4375 10.875 C-0.19422913 15.34974803 0.33115857 19.55477696 1 24 C-0.32 24.33 -1.64 24.66 -3 25 C-2.505 20.545 -2.505 20.545 -2 16 C-3.32 16.33 -4.64 16.66 -6 17 C-6.05402274 14.89611431 -6.09280256 12.79183286 -6.125 10.6875 C-6.14820313 9.51574219 -6.17140625 8.34398437 -6.1953125 7.13671875 C-6 4 -6 4 -4 1 C-2.68 1.33 -1.36 1.66 0 2 C0 1.34 0 0.68 0 0 Z " fill="#142218" transform="translate(279,468)"/>
<path d="M0 0 C0.79148437 -0.01417969 1.58296875 -0.02835937 2.3984375 -0.04296875 C4.625 0.1875 4.625 0.1875 7.625 2.1875 C7.8125 5.3125 7.8125 5.3125 7.625 8.1875 C6.965 6.8675 6.305 5.5475 5.625 4.1875 C4.965 4.1875 4.305 4.1875 3.625 4.1875 C3.625 3.5275 3.625 2.8675 3.625 2.1875 C0.13690809 2.95780122 0.13690809 2.95780122 -3.375 4.1875 C-3.705 5.1775 -4.035 6.1675 -4.375 7.1875 C-5.035 7.1875 -5.695 7.1875 -6.375 7.1875 C-6.045 9.1675 -5.715 11.1475 -5.375 13.1875 C-6.365 13.5175 -7.355 13.8475 -8.375 14.1875 C-8.354375 15.280625 -8.33375 16.37375 -8.3125 17.5 C-8.375 21.1875 -8.375 21.1875 -9.375 24.1875 C-10.695 24.1875 -12.015 24.1875 -13.375 24.1875 C-13.62081098 19.66989276 -13.03879622 16.74502852 -11.0625 12.6875 C-10.60746094 11.74132812 -10.15242188 10.79515625 -9.68359375 9.8203125 C-9.25175781 8.95148438 -8.81992187 8.08265625 -8.375 7.1875 C-8.05660156 6.52492188 -7.73820312 5.86234375 -7.41015625 5.1796875 C-5.29365817 0.82033325 -4.85479559 0.03927828 0 0 Z " fill="#25352A" transform="translate(47.375,453.8125)"/>
<path d="M0 0 C1.65 0 3.3 0 5 0 C5.16783262 3.43744412 5.33406544 6.87496378 5.5 10.3125 C5.54769531 11.28896484 5.59539062 12.26542969 5.64453125 13.27148438 C5.68964844 14.20927734 5.73476562 15.14707031 5.78125 16.11328125 C5.82314453 16.97735596 5.86503906 17.84143066 5.90820312 18.73168945 C5.97922401 20.48662304 6 22.24362992 6 24 C5.01 24 4.02 24 3 24 C2.34 24.66 1.68 25.32 1 26 C0.67 17.42 0.34 8.84 0 0 Z " fill="#0E2113" transform="translate(228,457)"/>
<path d="M0 0 C4.29 0 8.58 0 13 0 C11.97038242 5.14808788 10.65675751 7.62920538 8 12 C7.34 11.01 6.68 10.02 6 9 C5.01 9.495 5.01 9.495 4 10 C4 9.34 4 8.68 4 8 C3.34 8 2.68 8 2 8 C2 7.34 2 6.68 2 6 C1.34 6 0.68 6 0 6 C0 4.02 0 2.04 0 0 Z " fill="#0F241A" transform="translate(141,455)"/>
<path d="M0 0 C0.66 0.33 1.32 0.66 2 1 C2.02888146 4.31248187 2.04675799 7.62493167 2.0625 10.9375 C2.07087891 11.88302734 2.07925781 12.82855469 2.08789062 13.80273438 C2.09272461 15.15141602 2.09272461 15.15141602 2.09765625 16.52734375 C2.10551147 17.77632446 2.10551147 17.77632446 2.11352539 19.05053711 C2 21 2 21 1 22 C-0.63472882 22.08700342 -2.27314055 22.10701063 -3.91015625 22.09765625 C-4.89951172 22.09443359 -5.88886719 22.09121094 -6.90820312 22.08789062 C-7.94912109 22.07951172 -8.99003906 22.07113281 -10.0625 22.0625 C-11.10728516 22.05798828 -12.15207031 22.05347656 -13.22851562 22.04882812 C-15.81903454 22.03699927 -18.40952422 22.01906319 -21 22 C-21 28.27 -21 34.54 -21 41 C-21.33 41 -21.66 41 -22 41 C-22 34.4 -22 27.8 -22 21 C-11.605 20.505 -11.605 20.505 -1 20 C-1.03958027 13.79207086 -1.03958027 13.79207086 -1.09008789 7.58422852 C-1.09258545 6.81522217 -1.09508301 6.04621582 -1.09765625 5.25390625 C-1.10551147 4.06776733 -1.10551147 4.06776733 -1.11352539 2.85766602 C-1 1 -1 1 0 0 Z " fill="#516252" transform="translate(344,256)"/>
<path d="M0 0 C0.33 0 0.66 0 1 0 C1 5.94 1 11.88 1 18 C0.67 18 0.34 18 0 18 C-0.33 15.69 -0.66 13.38 -1 11 C-1.99 11 -2.98 11 -4 11 C-4 10.34 -4 9.68 -4 9 C-12.91 9 -21.82 9 -31 9 C-31.33 8.34 -31.66 7.68 -32 7 C-31.34 6.34 -30.68 5.68 -30 5 C-30 4.67 -30 4.34 -30 4 C-21.09 4 -12.18 4 -3 4 C-3 4.33 -3 4.66 -3 5 C-10.92 5.33 -18.84 5.66 -27 6 C-24.48322887 7.25838557 -22.58706712 7.20818973 -19.7734375 7.31640625 C-18.7421875 7.35830078 -17.7109375 7.40019531 -16.6484375 7.44335938 C-15.56820312 7.48267578 -14.48796875 7.52199219 -13.375 7.5625 C-11.74304688 7.62727539 -11.74304688 7.62727539 -10.078125 7.69335938 C-7.3855483 7.7996453 -4.69287747 7.90168057 -2 8 C-1.34 5.36 -0.68 2.72 0 0 Z " fill="#041208" transform="translate(264,474)"/>
<path d="M0 0 C1.65439171 2.97790508 2.38550003 5.66177043 3 9 C-1.10498209 8.91928281 -5.20846109 8.80642513 -9.3125 8.6875 C-10.47974609 8.66494141 -11.64699219 8.64238281 -12.84960938 8.61914062 C-13.96787109 8.58369141 -15.08613281 8.54824219 -16.23828125 8.51171875 C-17.26993408 8.48553467 -18.30158691 8.45935059 -19.36450195 8.43237305 C-22 8 -22 8 -25 5 C-17.08 4.67 -9.16 4.34 -1 4 C-0.67 2.68 -0.34 1.36 0 0 Z " fill="#0E1F14" transform="translate(261,474)"/>
<path d="M0 0 C3.63 0 7.26 0 11 0 C11.33 0.99 11.66 1.98 12 3 C11.34 3 10.68 3 10 3 C9.67 2.67 9.34 2.34 9 2 C9 2.33 9 2.66 9 3 C16.26 3.33 23.52 3.66 31 4 C31 3.01 31 2.02 31 1 C24.73 1 18.46 1 12 1 C12 0.67 12 0.34 12 0 C18.6 0 25.2 0 32 0 C32 1.65 32 3.3 32 5 C28.03069011 5.02465881 24.06140966 5.04284023 20.09204102 5.05493164 C18.74079614 5.05997057 17.38955674 5.06680177 16.03833008 5.07543945 C14.09979566 5.08752419 12.161222 5.09269828 10.22265625 5.09765625 C8.47094116 5.10551147 8.47094116 5.10551147 6.68383789 5.11352539 C4 5 4 5 3 4 C2.34 5.32 1.68 6.64 1 8 C0.67 5.36 0.34 2.72 0 0 Z " fill="#031006" transform="translate(379,457)"/>
<path d="M0 0 C0.33 0 0.66 0 1 0 C1 17.16 1 34.32 1 52 C7.93 52 14.86 52 22 52 C22 52.33 22 52.66 22 53 C14.41 53 6.82 53 -1 53 C-1.33 51.35 -1.66 49.7 -2 48 C-1.505 47.505 -1.505 47.505 -1 47 C-0.87767356 45.52749355 -0.8222544 44.04934289 -0.79467773 42.57202148 C-0.77473251 41.63112167 -0.75478729 40.69022186 -0.73423767 39.72080994 C-0.71752518 38.69790359 -0.70081268 37.67499725 -0.68359375 36.62109375 C-0.66281265 35.57929459 -0.64203156 34.53749542 -0.62062073 33.46412659 C-0.55500943 30.12198753 -0.49618669 26.77976715 -0.4375 23.4375 C-0.39432578 21.17772582 -0.35071186 18.91795999 -0.30664062 16.65820312 C-0.19931633 11.10555579 -0.09757188 5.55282679 0 0 Z " fill="#869085" transform="translate(322,203)"/>
<path d="M0 0 C0.33 0 0.66 0 1 0 C1.33 3.96 1.66 7.92 2 12 C2.99 12 3.98 12 5 12 C5 14.64 5 17.28 5 20 C5.66 19.67 6.32 19.34 7 19 C7.65213292 16.97536745 7.65213292 16.97536745 8 15 C8.66 17.31 9.32 19.62 10 22 C9.34 22 8.68 22 8 22 C7.67 22.66 7.34 23.32 7 24 C6.34 24 5.68 24 5 24 C4.67 24.66 4.34 25.32 4 26 C0.42365745 19.86108129 -0.54836455 15.54599369 -0.25 8.5 C-0.23195313 7.67757813 -0.21390625 6.85515625 -0.1953125 6.0078125 C-0.1487283 4.00469196 -0.07700699 2.00218179 0 0 Z " fill="#2D3B31" transform="translate(272,472)"/>
<path d="M0 0 C0.33 0 0.66 0 1 0 C1.33 10.89 1.66 21.78 2 33 C-4.93 33 -11.86 33 -19 33 C-18.67 32.34 -18.34 31.68 -18 31 C-12.06 31 -6.12 31 0 31 C0 20.77 0 10.54 0 0 Z " fill="#C4B58D" transform="translate(259,404)"/>
<path d="M0 0 C2.1464753 0.11344376 4.29220592 0.24106345 6.4375 0.375 C8.22994141 0.47941406 8.22994141 0.47941406 10.05859375 0.5859375 C11.02925781 0.72257812 11.99992187 0.85921875 13 1 C13.33 1.66 13.66 2.32 14 3 C13.67 3.66 13.34 4.32 13 5 C13.66 5 14.32 5 15 5 C15 5.66 15 6.32 15 7 C11.04 7 7.08 7 3 7 C3 6.34 3 5.68 3 5 C2.01 4.67 1.02 4.34 0 4 C0.99 3.01 1.98 2.02 3 1 C2.01 0.67 1.02 0.34 0 0 Z " fill="#18281E" transform="translate(287,500)"/>
<path d="M0 0 C10.23 0 20.46 0 31 0 C31 0.33 31 0.66 31 1 C30.15703369 1.02505615 29.31406738 1.0501123 28.44555664 1.07592773 C25.32758326 1.17088155 22.20978497 1.27012448 19.09204102 1.37231445 C17.74085853 1.41571223 16.38961947 1.4573837 15.03833008 1.49731445 C13.09963299 1.55489952 11.16113724 1.61914298 9.22265625 1.68359375 C8.05484619 1.72025146 6.88703613 1.75690918 5.68383789 1.79467773 C3.08220205 1.70076188 3.08220205 1.70076188 2 3 C1.76284045 5.86055414 1.57809383 8.69727656 1.4375 11.5625 C1.293125 14.346875 1.14875 17.13125 1 20 C6.94 20 12.88 20 19 20 C19 20.33 19 20.66 19 21 C12.73 21 6.46 21 0 21 C0 14.07 0 7.14 0 0 Z " fill="#071206" transform="translate(199,254)"/>
<path d="M0 0 C0.99 0 1.98 0 3 0 C3 7.92 3 15.84 3 24 C2.01 24 1.02 24 0 24 C0 16.08 0 8.16 0 0 Z " fill="#0C2115" transform="translate(327,480)"/>
<path d="M0 0 C1.90389849 2.85584773 2.69462177 4.9311762 3.625 8.1875 C3.88539062 9.08855469 4.14578125 9.98960937 4.4140625 10.91796875 C4.60742188 11.60503906 4.80078125 12.29210937 5 13 C4.01 13.33 3.02 13.66 2 14 C0.78130071 16.50447516 0.78130071 16.50447516 0 19 C-0.99 19 -1.98 19 -3 19 C-3.66 19.66 -4.32 20.32 -5 21 C-5.33 19.35 -5.66 17.7 -6 16 C-5.34 16 -4.68 16 -4 16 C-4 15.34 -4 14.68 -4 14 C-3.01 14 -2.02 14 -1 14 C-1.33 12.35 -1.66 10.7 -2 9 C-1.34 8.67 -0.68 8.34 0 8 C0 5.36 0 2.72 0 0 Z " fill="#1A2F23" transform="translate(117,457)"/>
<path d="M0 0 C0.33 0 0.66 0 1 0 C1.14299754 4.64475772 1.28539826 9.2895332 1.42724609 13.93432617 C1.47558454 15.51440933 1.52408602 17.0944875 1.57275391 18.67456055 C1.64268173 20.94578787 1.71202309 23.21703246 1.78125 25.48828125 C1.80312378 26.19463211 1.82499756 26.90098297 1.84753418 27.6287384 C1.93216876 30.42072168 2 33.20651796 2 36 C1.34 36 0.68 36 0 36 C0 42.6 0 49.2 0 56 C-0.33 56 -0.66 56 -1 56 C-1.15526952 37.30554983 -0.73226161 18.67656602 0 0 Z " fill="#BAAE8B" transform="translate(198,217)"/>
<path d="M0 0 C3.96 0 7.92 0 12 0 C11.01 0.495 11.01 0.495 10 1 C11.32 1.66 12.64 2.32 14 3 C11.22957891 5.77042109 9.23466195 5.39796106 5.375 5.625 C4.18648438 5.69976562 2.99796875 5.77453125 1.7734375 5.8515625 C0.40058594 5.92503906 0.40058594 5.92503906 -1 6 C-1.33 4.68 -1.66 3.36 -2 2 C-1.34 2 -0.68 2 0 2 C0 1.34 0 0.68 0 0 Z " fill="#0A1B11" transform="translate(288,457)"/>
<path d="M0 0 C0.66 0 1.32 0 2 0 C2.02685095 2.47923801 2.04676547 4.9581884 2.0625 7.4375 C2.07087891 8.14455078 2.07925781 8.85160156 2.08789062 9.58007812 C2.09653588 11.38693559 2.05220011 13.19387603 2 15 C1 16 1 16 -0.94946289 16.11352539 C-1.7821167 16.10828857 -2.61477051 16.10305176 -3.47265625 16.09765625 C-4.37177734 16.09443359 -5.27089844 16.09121094 -6.19726562 16.08789062 C-7.14279297 16.07951172 -8.08832031 16.07113281 -9.0625 16.0625 C-10.01189453 16.05798828 -10.96128906 16.05347656 -11.93945312 16.04882812 C-14.29303065 16.0370011 -16.64648477 16.02052025 -19 16 C-17 14 -17 14 -13.0859375 13.8046875 C-11.51550649 13.81799624 -9.94513779 13.84186398 -8.375 13.875 C-7.57320312 13.88402344 -6.77140625 13.89304687 -5.9453125 13.90234375 C-3.96341477 13.92593777 -1.98167019 13.96180935 0 14 C0 9.38 0 4.76 0 0 Z " fill="#C1B38A" transform="translate(197,421)"/>
<path d="M0 0 C0.33 0.99 0.66 1.98 1 3 C3.00016466 4.20882096 3.00016466 4.20882096 5 5 C4.67 5.33 4.34 5.66 4 6 C4.33 6.99 4.66 7.98 5 9 C3.68 9 2.36 9 1 9 C0.67 9.99 0.34 10.98 0 12 C-0.12375 11.195625 -0.2475 10.39125 -0.375 9.5625 C-0.58125 8.716875 -0.7875 7.87125 -1 7 C-3.49092811 5.75453595 -4.41080733 6.2232422 -7 7 C-6.3125 4.625 -6.3125 4.625 -5 2 C-2.375 0.6875 -2.375 0.6875 0 0 Z " fill="#081E11" transform="translate(185,459)"/>
<path d="M0 0 C3.96 0 7.92 0 12 0 C12 0.33 12 0.66 12 1 C7.545 1.495 7.545 1.495 3 2 C3.33 2.99 3.66 3.98 4 5 C4.66 5 5.32 5 6 5 C6.33 4.34 6.66 3.68 7 3 C8.65 4.65 10.3 6.3 12 8 C11.01 9.485 11.01 9.485 10 11 C9.01 10.67 8.02 10.34 7 10 C7 9.34 7 8.68 7 8 C6.34 8 5.68 8 5 8 C5 8.66 5 9.32 5 10 C4.01 9.67 3.02 9.34 2 9 C0.95888271 6.05480723 0.56463316 3.08376572 0 0 Z " fill="#314337" transform="translate(104,455)"/>
<path d="M0 0 C1.35156083 0.00502861 2.70312348 0.00958909 4.0546875 0.01367188 C7.32817265 0.02536289 10.60156186 0.04174971 13.875 0.0625 C13.875 0.3925 13.875 0.7225 13.875 1.0625 C0.66819125 2.74640291 -11.85427044 3.17339818 -25.125 2.0625 C-25.125 1.7325 -25.125 1.4025 -25.125 1.0625 C-16.74499613 -0.03349874 -8.4405013 -0.05442784 0 0 Z " fill="#BCA57C" transform="translate(225.125,107.9375)"/>
<path d="M0 0 C0.66 1.32 1.32 2.64 2 4 C1.01 5.485 1.01 5.485 0 7 C3.96 7.33 7.92 7.66 12 8 C12 8.66 12 9.32 12 10 C4.65059257 10.56293334 -1.52445584 9.72343789 -8 6 C-8.66 5.01 -9.32 4.02 -10 3 C-5.545 3.99 -5.545 3.99 -1 5 C-0.67 3.35 -0.34 1.7 0 0 Z " fill="#29382D" transform="translate(189,497)"/>
<path d="M0 0 C1.8125 0.1875 1.8125 0.1875 4 1 C7 5.17857143 7 5.17857143 7 8 C6.38125 8.2475 5.7625 8.495 5.125 8.75 C2.62519797 10.22047178 2.16683978 11.41403076 1 14 C-1.48063781 4.58997722 -1.48063781 4.58997722 0 0 Z " fill="#28352C" transform="translate(311,463)"/>
<path d="M0 0 C-1 3 -1 3 -2.75 4.25 C-5.52724898 5.17574966 -7.21571665 4.77341204 -10 4 C-10 3.01 -10 2.02 -10 1 C-12.97 0.67 -15.94 0.34 -19 0 C-19 -0.33 -19 -0.66 -19 -1 C-12.18597425 -2.05268874 -6.63198569 -1.93833398 0 0 Z " fill="#2F3C32" transform="translate(310,501)"/>
<path d="M0 0 C1.2684375 0.495 1.2684375 0.495 2.5625 1 C1.9025 2.98 1.2425 4.96 0.5625 7 C-4.0575 7 -8.6775 7 -13.4375 7 C-13.4375 6.67 -13.4375 6.34 -13.4375 6 C-7.9925 5.505 -7.9925 5.505 -2.4375 5 C-2.7675 4.67 -3.0975 4.34 -3.4375 4 C-3.7675 3.34 -4.0975 2.68 -4.4375 2 C-6.79349235 1.53248212 -6.79349235 1.53248212 -9.5 1.375 C-10.41910156 1.30023438 -11.33820313 1.22546875 -12.28515625 1.1484375 C-12.99542969 1.09945313 -13.70570313 1.05046875 -14.4375 1 C-9.50953784 -1.71145516 -5.38696797 -1.56711795 0 0 Z " fill="#6B756D" transform="translate(302.4375,456)"/>
<path d="M0 0 C0.78503906 0.00515625 1.57007813 0.0103125 2.37890625 0.015625 C3.55259766 0.00789063 3.55259766 0.00789063 4.75 0 C6.94140625 0.265625 6.94140625 0.265625 9.94140625 2.265625 C10.12890625 5.390625 10.12890625 5.390625 9.94140625 8.265625 C9.28140625 6.945625 8.62140625 5.625625 7.94140625 4.265625 C7.28140625 4.265625 6.62140625 4.265625 5.94140625 4.265625 C5.94140625 3.605625 5.94140625 2.945625 5.94140625 2.265625 C2.45331434 3.03592622 2.45331434 3.03592622 -1.05859375 4.265625 C-1.38859375 5.255625 -1.71859375 6.245625 -2.05859375 7.265625 C-4.12109375 8.453125 -4.12109375 8.453125 -6.05859375 9.265625 C-3.7829448 0.48812191 -3.7829448 0.48812191 0 0 Z " fill="#424841" transform="translate(45.05859375,453.734375)"/>
<path d="M0 0 C0.66 0 1.32 0 2 0 C1.40895235 4.84659077 0.02055843 8.60748167 -2 13 C-5.96 13 -9.92 13 -14 13 C-14 12.67 -14 12.34 -14 12 C-9.545 11.505 -9.545 11.505 -5 11 C-4.67 10.01 -4.34 9.02 -4 8 C-3.34 8 -2.68 8 -2 8 C-2.226875 7.4225 -2.45375 6.845 -2.6875 6.25 C-3 4 -3 4 -1.6875 1.75 C-1.130625 1.1725 -0.57375 0.595 0 0 Z " fill="#445245" transform="translate(137,492)"/>
<path d="M0 0 C2.475 0.99 2.475 0.99 5 2 C4.75 4.375 4.75 4.375 4 7 C2 8.125 2 8.125 0 9 C-0.33 9.99 -0.66 10.98 -1 12 C-2.25664978 9.09399739 -3 7.20395416 -3 4 C-2.01 3.67 -1.02 3.34 0 3 C0 2.01 0 1.02 0 0 Z " fill="#1A3025" transform="translate(62,492)"/>
<path d="M0 0 C3.96 0 7.92 0 12 0 C12.33 2.31 12.66 4.62 13 7 C10.08482708 5.92598892 8.22189824 5.22189824 6 3 C4.02 3.99 4.02 3.99 2 5 C2 3.68 2 2.36 2 1 C1.34 0.67 0.68 0.34 0 0 Z " fill="#0A190E" transform="translate(105,456)"/>
<path d="M0 0 C3 0 3 0 5.1875 2 C5.785625 2.66 6.38375 3.32 7 4 C6.67 4.66 6.34 5.32 6 6 C5.67 6.99 5.34 7.98 5 9 C4.34 9 3.68 9 3 9 C3.33 10.65 3.66 12.3 4 14 C1.9375 11.75 1.9375 11.75 0 9 C0.3125 6.75 0.3125 6.75 1 5 C0.67 4.67 0.34 4.34 0 4 C0 2.68 0 1.36 0 0 Z " fill="#39463E" transform="translate(334,466)"/>
<path d="M0 0 C1.32 0 2.64 0 4 0 C4 1.32 4 2.64 4 4 C5.32 3.67 6.64 3.34 8 3 C8 3.99 8 4.98 8 6 C4.04 6 0.08 6 -4 6 C-4 5.01 -4 4.02 -4 3 C-3.01 3 -2.02 3 -1 3 C-0.67 2.01 -0.34 1.02 0 0 Z " fill="#2D3F31" transform="translate(26,499)"/>
<path d="M0 0 C0.66 0.99 1.32 1.98 2 3 C3.98 2.67 5.96 2.34 8 2 C6.68 4.31 5.36 6.62 4 9 C3.38125 8.67 2.7625 8.34 2.125 8 C0.08981656 6.85806765 0.08981656 6.85806765 -2 7 C-2.66 7.66 -3.32 8.32 -4 9 C-3.35455571 5.51460083 -1.89865603 2.97180943 0 0 Z " fill="#3C4C3E" transform="translate(277,463)"/>
<path d="M0 0 C1.98 0 3.96 0 6 0 C6 3 6 6 6 9 C5.34 9.66 4.68 10.32 4 11 C3.34 10.67 2.68 10.34 2 10 C1.3671875 7.71484375 1.3671875 7.71484375 0.875 4.9375 C0.70742188 4.01839844 0.53984375 3.09929687 0.3671875 2.15234375 C0.24601562 1.44207031 0.12484375 0.73179687 0 0 Z " fill="#0A2114" transform="translate(325,457)"/>
<path d="M0 0 C1.32 0 2.64 0 4 0 C3.68289062 0.83789062 3.36578125 1.67578125 3.0390625 2.5390625 C1.92971749 6.2340989 1.59270398 9.52889627 1.375 13.375 C1.30023438 14.62023437 1.22546875 15.86546875 1.1484375 17.1484375 C1.09945312 18.08945312 1.05046875 19.03046875 1 20 C3.97 20 6.94 20 10 20 C10 20.33 10 20.66 10 21 C6.7 21 3.4 21 0 21 C0 14.07 0 7.14 0 0 Z " fill="#08160C" transform="translate(94,252)"/>
<path d="M0 0 C1.98 1.65 3.96 3.3 6 5 C5.60196439 7.88575819 5.20990931 8.82189513 2.9375 10.75 C2.298125 11.1625 1.65875 11.575 1 12 C0.45533613 7.915021 0 4.1274515 0 0 Z " fill="#49544A" transform="translate(209,491)"/>
<path d="M0 0 C0.33 0 0.66 0 1 0 C1.28571429 7.42857143 1.28571429 7.42857143 -1 11 C-1.99 11 -2.98 11 -4 11 C-4.6875 8.1875 -4.6875 8.1875 -5 5 C-3.6875 3.125 -3.6875 3.125 -2 2 C-1.34 2 -0.68 2 0 2 C0 1.34 0 0.68 0 0 Z " fill="#243329" transform="translate(279,468)"/>
<path d="M0 0 C0.33 0 0.66 0 1 0 C2.10228696 4.40914783 2.07654536 8.48382401 2 13 C0.68 12.67 -0.64 12.34 -2 12 C-2.33 9.69 -2.66 7.38 -3 5 C-2.34 4.67 -1.68 4.34 -1 4 C-0.34786708 1.97536745 -0.34786708 1.97536745 0 0 Z " fill="#2F3C34" transform="translate(318,472)"/>
<path d="M0 0 C6.6 0 13.2 0 20 0 C20 2.31 20 4.62 20 7 C19.34 7 18.68 7 18 7 C17.34 5.35 16.68 3.7 16 2 C10.72 2 5.44 2 0 2 C0 1.34 0 0.68 0 0 Z " fill="#C3B589" transform="translate(241,277)"/>
<path d="M0 0 C3.63 0 7.26 0 11 0 C11.33 0.99 11.66 1.98 12 3 C11.34 3 10.68 3 10 3 C9.67 2.67 9.34 2.34 9 2 C8.01 2.99 7.02 3.98 6 5 C5.01 4.67 4.02 4.34 3 4 C2.34 5.32 1.68 6.64 1 8 C0.67 5.36 0.34 2.72 0 0 Z " fill="#091A0F" transform="translate(379,457)"/>
<path d="M0 0 C1.66748747 2.50123121 2.89954361 4.77676357 4.125 7.5 C4.47820312 8.2734375 4.83140625 9.046875 5.1953125 9.84375 C6 12 6 12 6 15 C5.34 15 4.68 15 4 15 C3.67 14.01 3.34 13.02 3 12 C2.01 12 1.02 12 0 12 C0.33 9.36 0.66 6.72 1 4 C0.34 3.67 -0.32 3.34 -1 3 C-0.67 2.01 -0.34 1.02 0 0 Z " fill="#3F4D43" transform="translate(65,482)"/>
<path d="M0 0 C1.125 4.75 1.125 4.75 0 7 C-1.32 7 -2.64 7 -4 7 C-4.99 5.02 -5.98 3.04 -7 1 C-2.25 0 -2.25 0 0 0 Z " fill="#3A473C" transform="translate(350,487)"/>
<path d="M0 0 C1.32 0 2.64 0 4 0 C4 1.65 4 3.3 4 5 C3.01 5.33 2.02 5.66 1 6 C1 8.64 1 11.28 1 14 C0.67 14 0.34 14 0 14 C-0.19393875 11.85473901 -0.37998676 9.70876323 -0.5625 7.5625 C-0.71912109 5.77005859 -0.71912109 5.77005859 -0.87890625 3.94140625 C-0.91886719 2.97074219 -0.95882813 2.00007813 -1 1 C-0.67 0.67 -0.34 0.34 0 0 Z " fill="#06190E" transform="translate(314,471)"/>
<path d="M0 0 C7.26 0 14.52 0 22 0 C22 0.33 22 0.66 22 1 C21.09636719 1.06058594 20.19273438 1.12117187 19.26171875 1.18359375 C17.49248047 1.30927734 17.49248047 1.30927734 15.6875 1.4375 C14.51574219 1.51871094 13.34398438 1.59992188 12.13671875 1.68359375 C8.97409042 1.8867371 8.97409042 1.8867371 6 3 C5.67 3.66 5.34 4.32 5 5 C4.67 3.68 4.34 2.36 4 1 C2.68 0.67 1.36 0.34 0 0 Z " fill="#7C887B" transform="translate(94,251)"/>
<path d="M0 0 C2.31 0.33 4.62 0.66 7 1 C6.67 2.65 6.34 4.3 6 6 C3.03 5.505 3.03 5.505 0 5 C0 3.35 0 1.7 0 0 Z " fill="#19291E" transform="translate(303,458)"/>
<path d="M0 0 C1.125 3.75 1.125 3.75 0 6 C0.66 6.33 1.32 6.66 2 7 C1.34 7.66 0.68 8.32 0 9 C0 9.99 0 10.98 0 12 C0 12.99 0 13.98 0 15 C-0.66 15.66 -1.32 16.32 -2 17 C-3.73950854 13.7819092 -4.18752962 11.70468604 -3.2421875 8.15234375 C-2.22718177 5.40189115 -1.15942021 2.69253783 0 0 Z " fill="#475348" transform="translate(134,473)"/>
<path d="M0 0 C1.74627478 2.61941217 2.38722388 4.03824877 3 7 C2.34 7 1.68 7 1 7 C0.67 7.66 0.34 8.32 0 9 C-0.66 9 -1.32 9 -2 9 C-2.33 9.66 -2.66 10.32 -3 11 C-3.66 9.35 -4.32 7.7 -5 6 C-3.35 5.34 -1.7 4.68 0 4 C0 2.68 0 1.36 0 0 Z " fill="#435448" transform="translate(279,487)"/>
<path d="M0 0 C0.99 0.495 0.99 0.495 2 1 C2.51953125 3.36328125 2.51953125 3.36328125 2.8125 6.3125 C2.97685547 7.76076172 2.97685547 7.76076172 3.14453125 9.23828125 C3 12 3 12 0 16 C0 10.72 0 5.44 0 0 Z " fill="#323D33" transform="translate(378,457)"/>
<path d="M0 0 C1.32 0 2.64 0 4 0 C4.33 1.98 4.66 3.96 5 6 C2.69 5.34 0.38 4.68 -2 4 C-1.34 2.68 -0.68 1.36 0 0 Z " fill="#122117" transform="translate(306,496)"/>
<path d="M0 0 C2.5654594 2.5654594 2.54046087 4.47686668 3 8 C-0.96 8 -4.92 8 -9 8 C-9 7.67 -9 7.34 -9 7 C-5.535 6.505 -5.535 6.505 -2 6 C-1.34 4.02 -0.68 2.04 0 0 Z " fill="#576257" transform="translate(71,497)"/>
<path d="M0 0 C0.99 0 1.98 0 3 0 C3.33 0.66 3.66 1.32 4 2 C4.66 2.33 5.32 2.66 6 3 C5.34 4.32 4.68 5.64 4 7 C3.34 7 2.68 7 2 7 C2 6.34 2 5.68 2 5 C0.68 5.33 -0.64 5.66 -2 6 C-1.34 4.02 -0.68 2.04 0 0 Z " fill="#25382D" transform="translate(27,490)"/>
<path d="M0 0 C3 0 3 0 5 1 C5 3.66666667 5 6.33333333 5 9 C4.34 9.66 3.68 10.32 3 11 C3 9.02 3 7.04 3 5 C1.68 4.67 0.36 4.34 -1 4 C-0.67 2.68 -0.34 1.36 0 0 Z " fill="#323F37" transform="translate(312,486)"/>
<path d="M0 0 C1.90389849 2.85584773 2.69462177 4.9311762 3.625 8.1875 C4.01558594 9.53908203 4.01558594 9.53908203 4.4140625 10.91796875 C4.60742188 11.60503906 4.80078125 12.29210937 5 13 C2.525 12.01 2.525 12.01 0 11 C0 7.37 0 3.74 0 0 Z " fill="#435545" transform="translate(117,457)"/>
<path d="M0 0 C1.3842288 3.84507999 0.67201661 7.03510199 0 11 C-0.185625 12.299375 -0.37125 13.59875 -0.5625 14.9375 C-0.706875 15.948125 -0.85125 16.95875 -1 18 C-1.33 18 -1.66 18 -2 18 C-2.20852314 11.59370576 -2.1583195 6.07027358 0 0 Z " fill="#04140A" transform="translate(175,469)"/>
<path d="M0 0 C4.29 0 8.58 0 13 0 C12 5 12 5 10 8 C9.67 6.02 9.34 4.04 9 2 C6.03 2 3.06 2 0 2 C0 1.34 0 0.68 0 0 Z " fill="#697064" transform="translate(141,455)"/>
<path d="M0 0 C1.98 0 3.96 0 6 0 C6 1.32 6 2.64 6 4 C4.25 4.6875 4.25 4.6875 2 5 C-0.25 3.5625 -0.25 3.5625 -2 2 C-1.34 2 -0.68 2 0 2 C0 1.34 0 0.68 0 0 Z " fill="#35473A" transform="translate(284,501)"/>
<path d="M0 0 C0.91058531 3.07322544 1.08886184 5.80097361 1 9 C0.67 8.01 0.34 7.02 0 6 C-2.31 6.33 -4.62 6.66 -7 7 C-6.67 6.01 -6.34 5.02 -6 4 C-4.66923011 3.65657551 -3.33568021 3.32380126 -2 3 C-1.34 2.01 -0.68 1.02 0 0 Z " fill="#071B10" transform="translate(350,481)"/>
<path d="M0 0 C0.66 0 1.32 0 2 0 C2.22786458 2.01822917 2.45572917 4.03645833 2.68359375 6.0546875 C2.91292961 8.07404316 2.91292961 8.07404316 4 10 C3.34 10.66 2.68 11.32 2 12 C0.58188888 8.69107405 -0.51653861 5.57761427 -1 2 C-0.67 1.34 -0.34 0.68 0 0 Z " fill="#0A1C11" transform="translate(207,491)"/>
<path d="M0 0 C3.63 0 7.26 0 11 0 C8 2 8 2 4.4375 2.5 C0.9428808 2.65847757 0.9428808 2.65847757 -1 5 C-0.67 3.35 -0.34 1.7 0 0 Z " fill="#041007" transform="translate(142,456)"/>
<path d="M0 0 C0 0.66 0 1.32 0 2 C-0.66 2 -1.32 2 -2 2 C-2 2.99 -2 3.98 -2 5 C-3.32 5.33 -4.64 5.66 -6 6 C-6.33 4.68 -6.66 3.36 -7 2 C-2.25 0 -2.25 0 0 0 Z " fill="#05180B" transform="translate(362,470)"/>
<path d="M0 0 C0.66 0 1.32 0 2 0 C2.69699552 1.45381897 3.38233866 2.91322953 4.0625 4.375 C4.63677734 5.59316406 4.63677734 5.59316406 5.22265625 6.8359375 C5.47917969 7.55007813 5.73570313 8.26421875 6 9 C5.67 9.66 5.34 10.32 5 11 C4.896875 10.360625 4.79375 9.72125 4.6875 9.0625 C4.460625 8.381875 4.23375 7.70125 4 7 C3.01 6.67 2.02 6.34 1 6 C0.67 4.02 0.34 2.04 0 0 Z " fill="#4B534A" transform="translate(56,464)"/>
<path d="M0 0 C2.0625 0.4375 2.0625 0.4375 4 1 C3.01 1.495 3.01 1.495 2 2 C1.09656316 3.88263881 1.09656316 3.88263881 0.375 6.0625 C0.11460938 6.79597656 -0.14578125 7.52945312 -0.4140625 8.28515625 C-0.60742188 8.85105469 -0.80078125 9.41695313 -1 10 C-1.33 10 -1.66 10 -2 10 C-1.85950482 8.52031676 -1.71245174 7.04125484 -1.5625 5.5625 C-1.48128906 4.73878906 -1.40007813 3.91507812 -1.31640625 3.06640625 C-1 1 -1 1 0 0 Z " fill="#565E56" transform="translate(45,471)"/>
<path d="M0 0 C0 3.11227195 -0.45627049 5.94152152 -1 9 C-2.32 9 -3.64 9 -5 9 C-3.7508258 5.54074837 -2.32472205 2.85306797 0 0 Z " fill="#5A635B" transform="translate(179,461)"/>
<path d="M0 0 C0.33 0.66 0.66 1.32 1 2 C1.66 2 2.32 2 3 2 C3 3.98 3 5.96 3 8 C2.34 8 1.68 8 1 8 C0.34 5.69 -0.32 3.38 -1 1 C-0.67 0.67 -0.34 0.34 0 0 Z " fill="#061B10" transform="translate(312,489)"/>
<path d="M0 0 C2.5654594 2.5654594 2.54046087 4.47686668 3 8 C1.68 8.33 0.36 8.66 -1 9 C-0.67 6.03 -0.34 3.06 0 0 Z " fill="#05170B" transform="translate(277,484)"/>
<path d="M0 0 C1.32 0 2.64 0 4 0 C3.43628586 3.26954202 2.50037734 4.82575883 0 7 C-0.38133299 5.0085944 -0.71325582 3.00720923 -1 1 C-0.67 0.67 -0.34 0.34 0 0 Z " fill="#3A443D" transform="translate(351,483)"/>
<path d="M0 0 C0.66 1.32 1.32 2.64 2 4 C1.34 4 0.68 4 0 4 C-0.4021875 5.2065625 -0.4021875 5.2065625 -0.8125 6.4375 C-1.4003125 7.7059375 -1.4003125 7.7059375 -2 9 C-2.99 9.33 -3.98 9.66 -5 10 C-3.33333333 6.66666667 -1.66666667 3.33333333 0 0 Z " fill="#535C54" transform="translate(354,472)"/>
<path d="M0 0 C1.32 0.33 2.64 0.66 4 1 C3.01 1.33 2.02 1.66 1 2 C-0.22520264 5.00847418 -0.22520264 5.00847418 -1 8 C-1.33 7.01 -1.66 6.02 -2 5 C-2.66 4.67 -3.32 4.34 -4 4 C-2.68 3.67 -1.36 3.34 0 3 C0 2.01 0 1.02 0 0 Z " fill="#5A6B5C" transform="translate(186,468)"/>
<path d="M0 0 C0.99 0.66 1.98 1.32 3 2 C2.67 3.65 2.34 5.3 2 7 C1.34 6.01 0.68 5.02 0 4 C-0.99 4.495 -0.99 4.495 -2 5 C-2 4.34 -2 3.68 -2 3 C-2.66 2.67 -3.32 2.34 -4 2 C-2.68 2 -1.36 2 0 2 C0 1.34 0 0.68 0 0 Z " fill="#051A0C" transform="translate(147,460)"/>
<path d="M0 0 C0.66 0.33 1.32 0.66 2 1 C2 3.64 2 6.28 2 9 C0.68 7.68 -0.64 6.36 -2 5 C-1.34 3.35 -0.68 1.7 0 0 Z " fill="#203026" transform="translate(55,460)"/>
<path d="M0 0 C4.455 0.99 4.455 0.99 9 2 C8.67 2.99 8.34 3.98 8 5 C2.25 3.375 2.25 3.375 0 0 Z " fill="#646D63" transform="translate(179,500)"/>
<path d="M0 0 C2 2 2 2 2.125 5.125 C2.08375 6.07375 2.0425 7.0225 2 8 C0.68 6.68 -0.64 5.36 -2 4 C-1.34 2.68 -0.68 1.36 0 0 Z " fill="#2C3D31" transform="translate(280,495)"/>
<path d="M0 0 C0.99 0.33 1.98 0.66 3 1 C2.67 1.99 2.34 2.98 2 4 C-0.0625 4.6875 -0.0625 4.6875 -2 5 C-2.33 4.01 -2.66 3.02 -3 2 C-2.01 1.34 -1.02 0.68 0 0 Z " fill="#192A1E" transform="translate(354,479)"/>
<path d="M0 0 C0.33 0 0.66 0 1 0 C1.33 2.64 1.66 5.28 2 8 C1.01 8.33 0.02 8.66 -1 9 C-1.125 2.25 -1.125 2.25 0 0 Z " fill="#C2B594" transform="translate(198,245)"/>
<path d="M0 0 C1.76462683 3.08809695 2 4.23312136 2 8 C1.01 7.67 0.02 7.34 -1 7 C-1.04254356 5.00045254 -1.04080783 2.99958364 -1 1 C-0.67 0.67 -0.34 0.34 0 0 Z " fill="#091C10" transform="translate(54,476)"/>
<path d="M0 0 C0.66 0 1.32 0 2 0 C0.8141763 3.37503669 -0.27573689 5.64722731 -3 8 C-3.33 6.68 -3.66 5.36 -4 4 C-2.68 3.67 -1.36 3.34 0 3 C0 2.01 0 1.02 0 0 Z " fill="#4C564B" transform="translate(360,472)"/>
<path d="M0 0 C2.31 0 4.62 0 7 0 C7.66 1.65 8.32 3.3 9 5 C7.68 5 6.36 5 5 5 C5 4.01 5 3.02 5 2 C3.35 1.67 1.7 1.34 0 1 C0 0.67 0 0.34 0 0 Z " fill="#717C72" transform="translate(325,456)"/>
<path d="M0 0 C-3.20336822 2.83374881 -5.78087253 3.5205537 -10 4 C-7.99220736 -0.01558529 -4.07814299 -1.359381 0 0 Z " fill="#5C665D" transform="translate(190,457)"/>
<path d="M0 0 C0.66 0.99 1.32 1.98 2 3 C1 6 1 6 -1.0625 7.1875 C-1.701875 7.455625 -2.34125 7.72375 -3 8 C-1.125 1.125 -1.125 1.125 0 0 Z " fill="#4B534B" transform="translate(42,455)"/>
<path d="" fill="#FFFFFF" transform="translate(0,0)"/>
<path d="" fill="#FFFFFF" transform="translate(0,0)"/>
<path d="" fill="#FFFFFF" transform="translate(0,0)"/>
<path d="" fill="#FFFFFF" transform="translate(0,0)"/>
<path d="" fill="#FFFFFF" transform="translate(0,0)"/>
<path d="" fill="#FFFFFF" transform="translate(0,0)"/>
<path d="" fill="#FFFFFF" transform="translate(0,0)"/>
<path d="" fill="#FFFFFF" transform="translate(0,0)"/>
<path d="" fill="#FFFFFF" transform="translate(0,0)"/>
<path d="" fill="#FFFFFF" transform="translate(0,0)"/>
<path d="" fill="#FFFFFF" transform="translate(0,0)"/>
<path d="" fill="#FFFFFF" transform="translate(0,0)"/>
<path d="" fill="#FFFFFF" transform="translate(0,0)"/>
<path d="" fill="#FFFFFF" transform="translate(0,0)"/>
<path d="" fill="#FFFFFF" transform="translate(0,0)"/>
<path d="" fill="#FFFFFF" transform="translate(0,0)"/>
<path d="" fill="#FFFFFF" transform="translate(0,0)"/>
<path d="" fill="#FFFFFF" transform="translate(0,0)"/>
<path d="" fill="#FFFFFF" transform="translate(0,0)"/>
<path d="" fill="#FFFFFF" transform="translate(0,0)"/>
<path d="" fill="#FFFFFF" transform="translate(0,0)"/>
<path d="" fill="#FFFFFF" transform="translate(0,0)"/>
<path d="" fill="#FFFFFF" transform="translate(0,0)"/>
<path d="" fill="#FFFFFF" transform="translate(0,0)"/>
<path d="" fill="#FFFFFF" transform="translate(0,0)"/>
<path d="" fill="#FFFFFF" transform="translate(0,0)"/>
<path d="" fill="#FFFFFF" transform="translate(0,0)"/>
<path d="" fill="#FFFFFF" transform="translate(0,0)"/>
<path d="" fill="#FFFFFF" transform="translate(0,0)"/>
<path d="" fill="#FFFFFF" transform="translate(0,0)"/>
<path d="" fill="#FFFFFF" transform="translate(0,0)"/>
<path d="" fill="#FFFFFF" transform="translate(0,0)"/>
<path d="" fill="#FFFFFF" transform="translate(0,0)"/>
<path d="" fill="#FFFFFF" transform="translate(0,0)"/>
<path d="" fill="#FFFFFF" transform="translate(0,0)"/>
<path d="" fill="#FFFFFF" transform="translate(0,0)"/>
<path d="" fill="#FFFFFF" transform="translate(0,0)"/>
<path d="" fill="#FFFFFF" transform="translate(0,0)"/>
<path d="" fill="#FFFFFF" transform="translate(0,0)"/>
<path d="" fill="#FFFFFF" transform="translate(0,0)"/>
<path d="" fill="#FFFFFF" transform="translate(0,0)"/>
<path d="" fill="#FFFFFF" transform="translate(0,0)"/>
<path d="" fill="#FFFFFF" transform="translate(0,0)"/>
<path d="" fill="#FFFFFF" transform="translate(0,0)"/>
<path d="" fill="#FFFFFF" transform="translate(0,0)"/>
<path d="" fill="#FFFFFF" transform="translate(0,0)"/>
<path d="" fill="#FFFFFF" transform="translate(0,0)"/>
<path d="" fill="#FFFFFF" transform="translate(0,0)"/>
<path d="" fill="#FFFFFF" transform="translate(0,0)"/>
<path d="" fill="#FFFFFF" transform="translate(0,0)"/>
<path d="" fill="#FFFFFF" transform="translate(0,0)"/>
<path d="" fill="#FFFFFF" transform="translate(0,0)"/>
<path d="" fill="#FFFFFF" transform="translate(0,0)"/>
<path d="" fill="#FFFFFF" transform="translate(0,0)"/>
<path d="" fill="#FFFFFF" transform="translate(0,0)"/>
<path d="" fill="#FFFFFF" transform="translate(0,0)"/>
<path d="" fill="#FFFFFF" transform="translate(0,0)"/>
<path d="" fill="#FFFFFF" transform="translate(0,0)"/>
<path d="" fill="#FFFFFF" transform="translate(0,0)"/>
<path d="" fill="#FFFFFF" transform="translate(0,0)"/>
<path d="" fill="#FFFFFF" transform="translate(0,0)"/>
<path d="" fill="#FFFFFF" transform="translate(0,0)"/>
<path d="" fill="#FFFFFF" transform="translate(0,0)"/>
<path d="" fill="#FFFFFF" transform="translate(0,0)"/>
<path d="" fill="#FFFFFF" transform="translate(0,0)"/>
<path d="" fill="#FFFFFF" transform="translate(0,0)"/>
<path d="" fill="#FFFFFF" transform="translate(0,0)"/>
<path d="" fill="#FFFFFF" transform="translate(0,0)"/>
<path d="" fill="#FFFFFF" transform="translate(0,0)"/>
</svg>
